<?xml version="1.0" encoding="utf-8"?>
<!-- Generator: Adobe Illustrator 25.2.3, SVG Export Plug-In . SVG Version: 6.00 Build 0)  -->
<svg version="1.1" id="Layer_1" xmlns="http://www.w3.org/2000/svg" xmlns:xlink="http://www.w3.org/1999/xlink" x="0px" y="0px"
	 viewBox="0 0 134 24" style="enable-background:new 0 0 134 24;" xml:space="preserve">
<style type="text/css">
	.st0{fill:#A2A1A1;}
</style>
<g>
	<path class="st0" d="M22.3,10.3c-0.2-0.1-0.5-0.2-0.7-0.2c-0.2,0-0.2-0.1-0.2-0.1c0,0,0-0.1,0.1-0.3c0.1-0.4,0.2-1,0.4-1.8
		C22.1,7,22.2,6,22.4,5c0.2-1.1,0.2-2.1,0.2-3c0-0.6-0.1-1-0.2-1.3c-0.1-0.2-0.2-0.4-0.4-0.4c-0.1,0-0.4,0.1-0.8,0.4
		c-0.4,0.3-1,0.6-1.8,0.9c-0.8,0.4-1.7,0.7-2.9,1c-1.2,0.3-2.5,0.4-4,0.4c-0.8,0-1.5-0.1-1.8-0.2c-0.4-0.1-0.7-0.2-0.8-0.3
		C9.7,2.5,9.6,2.4,9.4,2.4C9.2,2.4,9,2.5,9,2.7c0,0,0,0.1,0,0.1c0,0.1,0.1,0.2,0.2,0.3c0.1,0.1,0.2,0.2,0.4,0.3
		c0.2,0.1,0.5,0.2,0.8,0.2c0.4,0.1,0.8,0.1,1.4,0.1c3.6,0,7-1,10-2.9h0c0.1,0,0.1,0.2,0.1,0.6c0,0.6-0.1,1.4-0.2,2.3
		c-0.1,0.9-0.3,1.9-0.5,2.8c-0.2,0.9-0.4,1.7-0.5,2.4c-0.2,0.6-0.3,1-0.4,1c-0.1,0-0.3,0-0.5,0c-0.5-0.1-1.1-0.1-1.7-0.1
		c-2.2,0-4.4,0.3-6.5,0.9c-2.1,0.6-4,1.3-5.7,2.3c-1.7,0.9-3,2-4,3.2c-1,1.2-1.5,2.4-1.5,3.6c0,1,0.4,1.9,1.2,2.6
		c0.8,0.7,2,1.2,3.6,1.4h0.1c0.3,0,0.5,0,0.8,0c1.8,0,3.4-0.3,4.8-0.9c1.4-0.6,2.7-1.3,3.8-2.3c1.1-0.9,2-1.9,2.8-3
		c0.8-1.1,1.4-2.1,1.9-3.1c0.5-1,0.9-1.8,1.2-2.6c0.3-0.7,0.4-1.2,0.5-1.4l0-0.1c0.2,0,0.5,0.1,0.6,0.2c0.2,0.1,0.3,0.2,0.4,0.3
		c0,0.1,0.1,0.1,0.1,0.1l0.1-0.1c0.1-0.1,0.2-0.2,0.2-0.2c0.1-0.1,0.1-0.1,0.1-0.2v0C22.7,10.5,22.6,10.4,22.3,10.3z M20,11.8
		c-0.3,0.8-0.8,1.8-1.4,2.9c-0.6,1.1-1.4,2.3-2.4,3.4c-1,1.2-2.2,2.2-3.6,3.1c-1.4,0.9-3,1.5-4.9,1.8c-0.5,0.1-1.1,0.1-1.6,0.1
		c-1.5,0-2.8-0.3-3.8-1c-1-0.7-1.5-1.6-1.5-2.6c0-1,0.4-2.1,1.3-3.2c0.9-1.1,2.1-2.1,3.7-3.1c1.6-0.9,3.4-1.7,5.4-2.3
		c2-0.6,4.2-0.9,6.5-0.9c0.7,0,1.3,0,1.9,0.1c0.5,0,0.8,0.1,0.9,0.1C20.4,10.5,20.3,11,20,11.8z"/>
	<path class="st0" d="M42.2,10.4c0.1,0,0.2,0.1,0.3,0.1c0.1,0,0.2,0,0.3-0.1c0.1-0.1,0.1-0.2,0.1-0.3c0-0.2-0.1-0.3-0.2-0.4
		c-0.1,0-0.2-0.1-0.2-0.1c-0.1,0-0.2,0-0.3,0.1C42.1,9.7,42,9.8,42,10v0.1C42,10.2,42.1,10.3,42.2,10.4z"/>
	<path class="st0" d="M64,12.4C64,12.4,64,12.4,64,12.4c-0.2,0-0.5,0.1-0.9,0.3c-0.4,0.2-0.9,0.4-1.4,0.6c-0.5,0.2-1.1,0.3-1.6,0.3
		c-0.4,0-0.7-0.1-0.9-0.2c-0.2-0.2-0.3-0.4-0.4-0.6c-0.1-0.2-0.2-0.5-0.2-0.7c-0.1-0.2-0.1-0.4-0.2-0.6c-0.1-0.2-0.2-0.3-0.4-0.3
		c-0.1,0-0.3,0-0.4,0.1c-0.1,0.1-0.2,0.2-0.4,0.2c-0.1,0.1-0.2,0.1-0.2,0.1c0,0,0,0,0,0c0,0,0-0.1,0-0.1c0-0.1-0.1-0.3-0.2-0.4
		c-0.1-0.1-0.2-0.2-0.4-0.2c-0.3,0-0.7,0.2-1,0.5c-0.3,0.3-0.7,0.7-0.9,1.1c-0.2,0.1-0.5,0.3-0.9,0.6c-1,0.6-2.1,1.3-3.4,2
		c-1.3,0.7-2.4,1.1-3.3,1.1c-0.3,0-0.5-0.1-0.7-0.2c-0.2-0.1-0.2-0.4-0.2-0.8c0-0.7,0.2-1.5,0.7-2.4c0.5-0.9,1-1.6,1.7-2.3
		c0.7-0.7,1.3-1,1.8-1H50c0.1,0,0.2,0,0.3,0.1c0.1,0.1,0.1,0.2,0.1,0.3v0.1c0,0.3-0.1,0.5-0.2,0.7c-0.1,0.2-0.3,0.4-0.4,0.6
		c-0.3,0.3-0.4,0.5-0.4,0.7c0,0.1,0,0.1,0.1,0.2c0,0,0,0,0.1,0.1c0,0,0.1,0,0.1,0c0.1,0,0.3-0.1,0.5-0.3c0.2-0.2,0.3-0.5,0.5-0.8
		c0.1-0.3,0.2-0.6,0.2-0.9s-0.1-0.6-0.2-0.8c-0.2-0.2-0.4-0.3-0.7-0.3c-0.6,0-1.3,0.3-2,0.9c-0.7,0.6-1.3,1.4-1.9,2.3c0,0,0,0,0,0.1
		c-0.2,0.1-0.4,0.3-0.6,0.5c-0.5,0.4-1,0.7-1.6,1.1c-0.6,0.4-1.1,0.6-1.5,0.6c-0.3,0-0.5-0.1-0.6-0.2c-0.2-0.1-0.2-0.3-0.2-0.6
		c0-0.3,0.1-0.6,0.2-0.9c0.1-0.3,0.2-0.6,0.3-0.8c0.2-0.3,0.2-0.6,0.2-0.7c0-0.1,0-0.1-0.1-0.2c-0.1,0-0.1-0.1-0.2-0.1
		c-0.2,0-0.4,0.2-0.5,0.5c-0.1,0.2-0.2,0.4-0.3,0.7c-0.3,0-0.8,0.1-1.4,0.3c-0.7,0.2-1.3,0.4-1.8,0.6c-0.4,0.1-0.6,0.2-0.6,0.2
		c0-0.1-0.1-0.2-0.2-0.3c-0.1-0.2-0.2-0.4-0.4-0.6c-0.1-0.2-0.2-0.4-0.2-0.7c0-0.3,0.1-0.5,0.3-0.6c0.2-0.2,0.4-0.3,0.5-0.4
		c0.1-0.1,0.2-0.1,0.3-0.2c0.1-0.1,0.1-0.1,0.1-0.2c0-0.1-0.1-0.2-0.2-0.2c0,0-0.3,0.1-0.9,0.4c-0.5,0.3-1.2,0.6-1.9,0.9
		c-0.7,0.4-1.4,0.7-2,1c-0.6,0.3-1,0.6-1.3,0.7l0,0c-0.1,0-0.2-0.1-0.3-0.2c0,0-0.1-0.1-0.1-0.1L30.8,13c-0.2-0.2-0.3-0.3-0.3-0.4
		c0-0.1,0.1-0.1,0.2-0.2c0.6-0.3,1-0.6,1.3-0.9c0.3-0.3,0.5-0.6,0.5-0.8v0c0-0.2-0.2-0.3-0.5-0.3c-0.2,0-0.4,0.1-0.8,0.2
		c-0.4,0.1-0.8,0.3-1.1,0.6c-0.3,0.3-0.5,0.6-0.5,1c0,0.1,0,0.2,0.1,0.3c-0.1,0.1-0.2,0.1-0.4,0.2c-0.5,0.3-1.1,0.6-1.8,0.9
		c-0.7,0.3-1.5,0.5-2.3,0.6c-0.1,0-0.2,0-0.3,0c-0.8,0-1.2-0.3-1.2-0.9c0-0.4,0.2-0.6,0.4-0.6c0.6,0,1.1-0.2,1.5-0.5
		c0.4-0.3,0.6-0.6,0.6-0.9c0-0.1,0-0.1,0-0.2c0-0.1-0.1-0.1-0.2-0.2c-0.1-0.1-0.2-0.1-0.4-0.1c-0.3,0-0.7,0.1-1.1,0.3
		c-0.4,0.2-0.8,0.5-1.1,0.9c-0.3,0.4-0.5,0.8-0.5,1.2c0,0.2,0,0.4,0.1,0.7c0.1,0.2,0.3,0.4,0.5,0.6c0.2,0.2,0.6,0.2,1,0.2h0.2
		c0.7,0,1.4-0.2,2.2-0.6c0.8-0.3,1.5-0.7,2-1c0.3-0.2,0.5-0.3,0.7-0.4c0,0.1,0.1,0.3,0.2,0.4c0.2,0.2,0.4,0.4,0.5,0.6
		c0.2,0.2,0.3,0.3,0.3,0.4c0,0-0.2,0.2-0.5,0.5c-0.3,0.2-0.6,0.5-1,0.8c-0.4,0.3-0.7,0.7-1,1c-0.3,0.3-0.4,0.6-0.4,0.9
		c0,0.1,0,0.1,0.1,0.2c0.1,0.1,0.2,0.1,0.3,0.1c0.3,0,0.7-0.1,1.3-0.4c0.6-0.3,1.1-0.7,1.6-1.1c0.5-0.5,0.7-1,0.7-1.5
		c0-0.2,0-0.3-0.1-0.4c0.5-0.4,1.1-0.7,1.7-1.1c0.6-0.3,1.2-0.6,1.7-0.8c0.5-0.2,0.8-0.4,0.9-0.4c-0.1,0.2-0.1,0.3-0.1,0.5
		c0,0.3,0.1,0.6,0.2,0.9c0.1,0.2,0.2,0.4,0.4,0.5c0.1,0.2,0.2,0.3,0.2,0.4c0,0-0.1,0.1-0.3,0.2c-0.2,0.1-0.4,0.3-0.7,0.4
		c-0.5,0.3-1.1,0.7-1.6,1.1c-0.6,0.4-0.8,0.8-0.8,1.1c0,0.2,0.1,0.2,0.4,0.2c0.7,0,1.4-0.2,2.2-0.7c0.8-0.5,1.4-1.2,1.6-2.1
		c0.1-0.2,0.3-0.3,0.7-0.5c0.4-0.2,0.9-0.4,1.5-0.5c0.6-0.2,1-0.3,1.4-0.4c0,0,0,0,0,0c0,0.1,0,0.1-0.1,0.2
		c-0.1,0.4-0.2,0.8-0.2,1.1c0,0.6,0.2,1,0.7,1.2c0.1,0,0.2,0,0.3,0h0.1c0.4,0,0.8-0.1,1.3-0.4c0.5-0.3,1-0.6,1.5-0.9
		c0.4-0.3,0.8-0.6,1.1-0.8c-0.3,0.7-0.5,1.4-0.5,2.1c0,0.4,0.1,0.7,0.2,0.9c0.1,0.2,0.4,0.4,0.6,0.5c0.2,0.1,0.3,0.1,0.5,0.1
		c0.6,0,1.4-0.2,2.3-0.6s1.8-0.9,2.8-1.4c0.9-0.5,1.7-1,2.3-1.4c0.1-0.1,0.2-0.1,0.3-0.2c-0.1,0.3-0.2,0.5-0.2,0.7v0.1
		c0,0.1,0,0.2,0.1,0.3c0.1,0.1,0.2,0.2,0.3,0.2c0.2,0,0.4-0.1,0.7-0.3c0.3-0.2,0.5-0.4,0.8-0.6c0.1-0.1,0.2-0.2,0.3-0.2
		c0.1-0.1,0.1-0.1,0.2-0.1c0,0,0,0,0,0c0,0,0,0,0,0V13c0,0,0,0.1,0,0.1c0,0,0,0.1,0,0.1c0,0,0,0,0,0c0.1,0,0.2-0.2,0.4-0.5
		c0.1-0.3,0.3-0.5,0.5-0.7c0.2-0.2,0.4-0.3,0.5-0.3h0c0.1,0,0.2,0.1,0.2,0.2c0,0.7,0.1,1.2,0.4,1.5c0.3,0.3,0.8,0.5,1.4,0.5
		c0.6,0,1.2-0.1,1.9-0.4c0.7-0.2,1.2-0.5,1.7-0.7C63.9,12.7,64.1,12.5,64,12.4C64.1,12.5,64.1,12.4,64,12.4
		C64.1,12.4,64.1,12.4,64,12.4z M24.3,11.9c0.2-0.1,0.4-0.3,0.6-0.4c0.2-0.1,0.4-0.2,0.6-0.2c0.1,0,0.1,0,0.1,0c0,0,0,0.1,0,0.1
		c0,0.2-0.1,0.3-0.3,0.5c-0.2,0.1-0.5,0.2-0.7,0.3c-0.3,0.1-0.4,0.1-0.5,0.1h0c0,0,0,0,0,0C24,12.2,24.1,12,24.3,11.9z M30.3,12.3
		c-0.1,0-0.1-0.1-0.1-0.2c0-0.2,0.1-0.4,0.4-0.7c0.2-0.2,0.5-0.4,0.7-0.5c0.3-0.1,0.5-0.2,0.7-0.2c0,0,0.1,0,0.1,0
		c0,0,0.1,0,0.1,0.1c0,0.1-0.1,0.3-0.4,0.5c-0.2,0.2-0.5,0.4-0.8,0.6C30.7,12.2,30.5,12.3,30.3,12.3z M30.3,15.5
		c-0.4,0.4-0.8,0.7-1.2,1c-0.4,0.3-0.7,0.4-0.9,0.4c0,0,0,0,0,0c0-0.1,0.1-0.3,0.4-0.6c0.3-0.3,0.6-0.6,0.9-0.9
		c0.4-0.3,0.7-0.6,1-0.8c0.3-0.2,0.5-0.3,0.5-0.3c0,0,0,0,0,0.1C30.9,14.7,30.7,15.1,30.3,15.5z M36.6,14.5c0,0.2-0.2,0.5-0.6,0.8
		c-0.4,0.3-0.8,0.6-1.3,0.8c-0.4,0.2-0.8,0.4-1,0.4c0,0,0,0,0,0c0-0.1,0.1-0.2,0.4-0.4c0.3-0.2,0.6-0.4,0.9-0.7
		c0.4-0.2,0.7-0.4,1-0.6C36.4,14.5,36.5,14.4,36.6,14.5C36.6,14.4,36.6,14.4,36.6,14.5L36.6,14.5z M56.4,12c0,0.1,0,0.2-0.1,0.3
		c-0.1,0.1-0.3,0.2-0.5,0.4c-0.5,0.4-0.8,0.6-0.9,0.6c0,0,0,0,0,0c0,0,0.1-0.1,0.2-0.3c0.1-0.2,0.2-0.4,0.4-0.6
		c0.2-0.2,0.3-0.4,0.5-0.5c0.2-0.2,0.3-0.2,0.4-0.2c0,0,0,0,0.1,0c0,0,0,0,0,0.1C56.4,11.8,56.4,11.8,56.4,12L56.4,12z"/>
	<path class="st0" d="M88.4,0.9c1,0.2,1.7,0.3,2,0.4c0.2,0.1,0.4,0.1,0.5,0.1c0.3,0,0.5-0.1,0.5-0.3c0-0.3-0.4-0.5-1.1-0.6
		c-0.7-0.1-1.6-0.2-2.7-0.3c-1.1-0.1-2.2-0.1-3.4-0.1c-0.8,0-1.8,0-3.2,0.1c-1.3,0.1-2.8,0.2-4.3,0.4c-1.5,0.2-2.9,0.4-4.3,0.6
		c-1.4,0.3-2.5,0.5-3.3,0.9c-0.9,0.3-1.3,0.7-1.3,1.1c0,0.1,0,0.2,0.1,0.2c0.1,0.1,0.2,0.1,0.2,0.1c0.2,0,0.3-0.1,0.4-0.2
		c0.4-0.3,1-0.6,1.8-0.9c0.9-0.3,1.8-0.5,2.7-0.7c1-0.2,1.8-0.4,2.6-0.5c0.7-0.1,1.2-0.2,1.3-0.2h0c0,0.1-0.1,0.4-0.4,1
		c-0.3,0.7-0.8,1.8-1.4,3.2c-0.6,1.4-1.2,3.1-1.9,5.1c-0.2,0.6-0.3,1-0.5,1.3c-0.1,0.3-0.2,0.4-0.4,0.5s-0.3,0.1-0.6,0.1
		c0,0-0.1,0-0.1,0c-1,0.1-1.8,0.3-2.3,0.4c-0.6,0.2-0.9,0.4-0.9,0.7c0,0.1,0.1,0.2,0.2,0.3c0.9,0.5,1.5,1,1.9,1.3
		c0.4,0.4,0.7,0.7,0.8,0.9c0.1,0.2,0.2,0.3,0.2,0.4c0,0,0,0,0,0c0,0,0,0,0,0c0,0.1,0,0.3-0.2,0.8c-0.1,0.6-0.3,1.3-0.4,2.1
		c-0.2,0.9-0.2,1.7-0.2,2.4c0,0.7,0.1,1.2,0.2,1.4c0.2,0.3,0.3,0.4,0.5,0.4h0c0.5-0.1,0.8-0.5,1.1-1.2S73,21,73,20.2
		c0-0.7-0.1-1.3-0.2-1.8c-0.1-0.5-0.2-1-0.4-1.3c-0.1-0.3-0.2-0.6-0.2-0.7c0,0,0-0.1,0-0.1c0-0.1,0-0.1,0.1-0.2l0.3-1
		c0.1-0.3,0.1-0.5,0.2-0.7c0.1-0.4,0.2-0.6,0.2-0.8c0.1-0.2,0.1-0.3,0.2-0.4c0-0.1,0.1-0.2,0.1-0.2c0,0,0.1,0,0.2,0h0.1l0.6,0
		c0.9,0,1.7,0,2.3,0.1c0.6,0.1,1.1,0.2,1.4,0.3c0.2,0.1,0.4,0.1,0.4,0.1l0,0h0v-0.1c0-0.3-0.2-0.5-0.7-0.7c-0.5-0.2-1.3-0.4-2.3-0.4
		h-0.4c-0.4,0-0.8,0-1,0c-0.2,0-0.3,0-0.5,0c0,0,0,0,0,0c0,0,0,0,0,0c0-0.2,0.3-1,0.8-2.4c0.5-1.4,1.1-2.8,1.7-4.3
		c0.4-1,0.7-1.8,1-2.6c0.3-0.7,0.5-1.2,0.5-1.5c0,0,0-0.1,0-0.1c0-0.1,0.1-0.2,0.1-0.2c0-0.1,0.1-0.1,0.2-0.1C78,1.1,78.1,1,78.4,1
		c0.2,0,0.6-0.1,1-0.1c0.2,0,0.3,0,0.5,0c1.4-0.1,2.7-0.2,4.1-0.2C85.9,0.7,87.4,0.8,88.4,0.9z M72.4,17.5c0.1,0.3,0.2,0.7,0.3,1.1
		c0.1,0.4,0.1,0.8,0.1,1.2l0,0.4c-0.1,1.7-0.3,2.6-0.6,2.8c-0.2,0.1-0.4,0.2-0.4,0.2c-0.3,0-0.4-0.4-0.4-1.1c0-0.6,0.1-1.3,0.2-2
		c0.1-0.8,0.3-1.5,0.4-2.1c0.1-0.6,0.2-0.9,0.2-0.9C72.2,17.1,72.3,17.2,72.4,17.5z M72.4,13.6c-0.1,0.3-0.2,0.6-0.3,1
		c-0.1,0.3-0.2,0.7-0.3,0.9c-0.1,0.2-0.1,0.3-0.1,0.4c0,0,0,0,0,0v0l-0.1-0.1c-0.2-0.2-0.5-0.5-1-0.9c-0.5-0.4-1-0.8-1.6-1.2
		c0-0.1,0.2-0.1,0.5-0.2c0.3-0.1,0.7-0.1,1.1-0.2c0.4-0.1,0.8-0.1,1.2-0.2c0.4,0,0.6-0.1,0.6-0.1c0,0,0,0,0,0c0,0,0,0,0,0
		C72.5,13.1,72.5,13.3,72.4,13.6z"/>
	<path class="st0" d="M111.7,10.4c0.1,0,0.2,0.1,0.3,0.1c0.1,0,0.2,0,0.3-0.1c0.1-0.1,0.1-0.2,0.1-0.3c0-0.2-0.1-0.3-0.2-0.4
		c-0.1,0-0.2-0.1-0.2-0.1c-0.1,0-0.2,0-0.3,0.1c-0.2,0.1-0.2,0.2-0.2,0.4v0.1C111.5,10.2,111.6,10.3,111.7,10.4z"/>
	<path class="st0" d="M133.5,12.4C133.5,12.4,133.5,12.4,133.5,12.4C133.4,12.4,133.4,12.4,133.5,12.4c-0.2,0-0.5,0.1-1,0.3
		c-0.4,0.2-0.9,0.4-1.4,0.6c-0.5,0.2-1.1,0.3-1.6,0.3c-0.4,0-0.7-0.1-0.9-0.2c-0.2-0.2-0.3-0.4-0.4-0.6c-0.1-0.2-0.2-0.5-0.2-0.7
		c0-0.2-0.1-0.4-0.2-0.6c-0.1-0.2-0.2-0.3-0.4-0.3c-0.1,0-0.3,0-0.4,0.1c-0.1,0.1-0.2,0.2-0.4,0.2c-0.1,0.1-0.2,0.1-0.2,0.1
		c0,0,0,0,0,0c0,0,0-0.1,0-0.1c0-0.1-0.1-0.3-0.2-0.4c-0.1-0.1-0.2-0.2-0.4-0.2c-0.3,0-0.7,0.2-1,0.5c-0.3,0.3-0.6,0.7-0.8,1
		c-0.1,0-0.1,0-0.2,0.1c-0.2,0.1-0.5,0.2-0.9,0.2c-0.3,0.1-0.7,0.1-1,0.1c-0.5,0-0.9-0.2-1.2-0.6c-0.3-0.4-0.5-1-0.5-1.7
		c0-0.3,0-0.5,0-0.6c0-0.1,0-0.1,0-0.2c0-0.2-0.1-0.3-0.2-0.3c-0.2,0-0.5,0.2-0.9,0.7c-0.4,0.4-0.8,1-1.3,1.6
		c-0.5,0.6-0.9,1.2-1.3,1.8c-0.3,0.4-0.5,0.7-0.7,1c-0.2,0.2-0.3,0.4-0.3,0.4c0,0,0,0,0,0c0-0.1,0-0.2,0.1-0.4
		c0.1-0.2,0.2-0.5,0.3-0.8c0.2-0.5,0.3-0.9,0.5-1.3c0.1-0.4,0.2-0.7,0.2-0.9v0c0,0,0-0.1-0.1-0.1c0,0-0.1-0.1-0.2-0.1h0
		c-0.2,0-0.4,0.3-0.6,0.9c-0.1,0.2-0.1,0.3-0.2,0.5c-0.2,0.1-0.4,0.3-0.7,0.5c-0.5,0.4-1,0.7-1.6,1.1c-0.6,0.4-1.1,0.6-1.5,0.6
		c-0.3,0-0.5-0.1-0.6-0.2c-0.2-0.1-0.2-0.3-0.2-0.6c0-0.3,0.1-0.6,0.2-0.9c0.1-0.3,0.2-0.6,0.3-0.8c0.2-0.3,0.2-0.6,0.2-0.7
		c0-0.1,0-0.1-0.1-0.2c-0.1,0-0.1-0.1-0.2-0.1c-0.2,0-0.4,0.2-0.5,0.5c-0.1,0.2-0.2,0.5-0.3,0.7c-0.1,0.1-0.2,0.1-0.4,0.2
		c-0.5,0.3-1.1,0.6-1.8,0.9c-0.7,0.3-1.5,0.5-2.3,0.6c-0.1,0-0.2,0-0.3,0c-0.8,0-1.2-0.3-1.2-0.9c0-0.4,0.2-0.6,0.4-0.6
		c0.6,0,1.1-0.2,1.5-0.5c0.4-0.3,0.6-0.6,0.6-0.9c0-0.1,0-0.1,0-0.2c0-0.1-0.1-0.1-0.2-0.2c-0.1-0.1-0.2-0.1-0.4-0.1
		c-0.3,0-0.7,0.1-1.1,0.3c-0.4,0.2-0.8,0.5-1.1,0.9c-0.1,0.2-0.2,0.3-0.3,0.5c-0.1,0-0.1,0-0.2,0.1c-0.2,0.1-0.5,0.2-0.9,0.2
		c-0.3,0.1-0.7,0.1-1,0.1c-0.5,0-0.9-0.2-1.2-0.6c-0.3-0.4-0.5-1-0.5-1.7c0-0.3,0-0.5,0-0.6c0-0.1,0-0.1,0-0.2
		c0-0.2-0.1-0.3-0.2-0.3c-0.2,0-0.5,0.2-0.9,0.7c-0.4,0.4-0.8,1-1.3,1.6c-0.5,0.6-0.9,1.2-1.3,1.8c-0.3,0.4-0.5,0.7-0.7,1
		c-0.2,0.2-0.3,0.4-0.3,0.4c0,0,0,0,0,0c0-0.1,0-0.2,0.1-0.4c0.1-0.2,0.2-0.5,0.3-0.8c0.2-0.5,0.3-0.9,0.5-1.3
		c0.1-0.4,0.2-0.7,0.2-0.9v0c0,0,0-0.1-0.1-0.1c0,0-0.1-0.1-0.2-0.1h0c-0.2,0-0.4,0.3-0.6,0.9c-0.1,0.1-0.1,0.3-0.2,0.5
		c-0.1,0-0.1,0-0.2,0.1c-0.2,0.1-0.5,0.2-0.9,0.2c-0.3,0.1-0.7,0.1-1,0.1c-0.5,0-0.9-0.2-1.2-0.6c-0.3-0.4-0.5-1-0.5-1.7
		c0-0.3,0-0.5,0-0.6c0-0.1,0-0.1,0-0.2c0-0.2-0.1-0.3-0.2-0.3c-0.2,0-0.5,0.2-0.9,0.7c-0.4,0.4-0.8,1-1.3,1.6
		c-0.5,0.6-0.9,1.2-1.3,1.8c-0.3,0.4-0.5,0.7-0.7,1c-0.2,0.2-0.3,0.4-0.3,0.4c0,0,0,0,0,0c0-0.1,0-0.2,0.1-0.4
		c0.1-0.2,0.2-0.5,0.3-0.8c0.2-0.5,0.3-0.9,0.5-1.3c0.1-0.4,0.2-0.7,0.2-0.9v0c0,0,0-0.1-0.1-0.1c0,0-0.1-0.1-0.2-0.1h0
		c-0.2,0-0.4,0.3-0.6,0.9c-0.1,0.1-0.1,0.3-0.2,0.5c-0.1,0.1-0.2,0.1-0.4,0.2c-0.5,0.3-1.1,0.6-1.8,0.9c-0.7,0.3-1.5,0.5-2.3,0.6
		c-0.1,0-0.2,0-0.3,0c-0.8,0-1.2-0.3-1.2-0.9c0-0.4,0.2-0.6,0.4-0.6c0.6,0,1.1-0.2,1.5-0.5c0.4-0.3,0.6-0.6,0.6-0.9
		c0-0.1,0-0.1,0-0.2c0-0.1-0.1-0.1-0.2-0.2c-0.1-0.1-0.2-0.1-0.4-0.1c-0.3,0-0.7,0.1-1.1,0.3c-0.4,0.2-0.8,0.5-1.1,0.9
		c-0.3,0.4-0.5,0.8-0.5,1.2c0,0.2,0,0.4,0.1,0.7c0.1,0.2,0.3,0.4,0.5,0.6c0.2,0.2,0.6,0.2,1,0.2h0.2c0.7,0,1.4-0.2,2.2-0.6
		c0.8-0.3,1.5-0.7,2-1c0.2-0.1,0.4-0.3,0.5-0.3c-0.2,0.4-0.3,0.8-0.4,1.3c-0.2,0.7-0.3,1.2-0.3,1.6c0,0.2,0,0.3,0.1,0.4
		c0,0,0.1,0,0.1,0.1c0,0,0.1,0,0.1,0c0.2,0,0.5-0.4,1.1-1.2c0.6-0.8,1.2-1.6,1.8-2.5c0.4-0.6,0.8-1.1,1.1-1.6
		c0.3-0.4,0.5-0.6,0.6-0.6c-0.1,0.2-0.1,0.5-0.1,0.8c0,0.3,0.1,0.7,0.2,1c0.1,0.4,0.4,0.6,0.7,0.9c0.3,0.2,0.7,0.4,1.2,0.4
		c0.3,0,0.7,0,1.2-0.1c0.4-0.1,0.7-0.2,1-0.3c-0.1,0.4-0.3,0.7-0.4,1.2c-0.2,0.7-0.3,1.2-0.3,1.6c0,0.2,0,0.3,0.1,0.4
		c0,0,0.1,0,0.1,0.1c0,0,0.1,0,0.1,0c0.2,0,0.5-0.4,1.1-1.2c0.6-0.8,1.2-1.6,1.8-2.5c0.4-0.6,0.8-1.1,1.1-1.6
		c0.3-0.4,0.5-0.6,0.6-0.6c-0.1,0.2-0.1,0.5-0.1,0.8c0,0.3,0.1,0.7,0.2,1c0.1,0.4,0.4,0.6,0.7,0.9c0.3,0.2,0.7,0.4,1.2,0.4
		c0.3,0,0.7,0,1.2-0.1c0.4-0.1,0.7-0.2,1-0.3c0,0.1,0,0.3,0,0.4c0,0.2,0,0.4,0.1,0.7c0.1,0.2,0.3,0.4,0.5,0.6c0.2,0.2,0.6,0.2,1,0.2
		h0.2c0.7,0,1.4-0.2,2.2-0.6c0.8-0.3,1.5-0.7,2-1c0.2-0.2,0.4-0.3,0.6-0.4c0,0.1,0,0.1-0.1,0.2c-0.1,0.4-0.2,0.8-0.2,1.1
		c0,0.6,0.2,1,0.7,1.2c0.1,0,0.2,0,0.3,0h0.1c0.4,0,0.8-0.1,1.3-0.4c0.5-0.3,1-0.6,1.5-0.9c0.5-0.3,0.9-0.7,1.2-0.9c0,0,0,0,0.1-0.1
		c-0.1,0.3-0.3,0.7-0.4,1.1c-0.2,0.7-0.3,1.2-0.3,1.6c0,0.2,0,0.3,0.1,0.4c0,0,0.1,0,0.1,0.1c0,0,0.1,0,0.1,0c0.2,0,0.5-0.4,1.1-1.2
		c0.6-0.8,1.2-1.6,1.8-2.5c0.4-0.6,0.8-1.1,1.1-1.6c0.3-0.4,0.5-0.6,0.6-0.6c-0.1,0.2-0.1,0.5-0.1,0.8c0,0.3,0.1,0.7,0.2,1
		c0.1,0.4,0.4,0.6,0.7,0.9c0.3,0.2,0.7,0.4,1.2,0.4c0.3,0,0.7,0,1.2-0.1c0.4-0.1,0.6-0.2,0.9-0.2c-0.2,0.3-0.3,0.6-0.3,0.9v0.1
		c0,0.1,0,0.2,0.1,0.3c0.1,0.1,0.2,0.2,0.3,0.2c0.2,0,0.4-0.1,0.7-0.3c0.3-0.2,0.5-0.4,0.8-0.6c0.1-0.1,0.2-0.2,0.3-0.2
		c0.1-0.1,0.1-0.1,0.2-0.1c0,0,0,0,0,0c0,0,0,0,0,0V13c0,0,0,0.1,0,0.1c0,0,0,0.1,0,0.1c0,0,0,0,0,0c0.1,0,0.2-0.2,0.4-0.5
		c0.1-0.3,0.3-0.5,0.5-0.7c0.2-0.2,0.4-0.3,0.5-0.3h0c0.1,0,0.2,0.1,0.2,0.2c0,0.7,0.1,1.2,0.4,1.5c0.3,0.3,0.8,0.5,1.4,0.5
		c0.6,0,1.2-0.1,1.9-0.4c0.7-0.2,1.2-0.5,1.7-0.7C133.3,12.7,133.5,12.5,133.5,12.4C133.5,12.5,133.5,12.4,133.5,12.4z M105.3,11.9
		c0.2-0.1,0.4-0.3,0.6-0.4c0.2-0.1,0.4-0.2,0.6-0.2c0.1,0,0.1,0,0.1,0c0,0,0,0.1,0,0.1c0,0.2-0.1,0.3-0.3,0.5
		c-0.2,0.1-0.5,0.2-0.7,0.3c-0.3,0.1-0.4,0.1-0.5,0.1h0c0,0,0,0,0,0C105,12.2,105.1,12,105.3,11.9z M82.1,11.9
		c0.2-0.1,0.4-0.3,0.6-0.4c0.2-0.1,0.4-0.2,0.6-0.2c0.1,0,0.1,0,0.1,0c0,0,0,0.1,0,0.1c0,0.2-0.1,0.3-0.3,0.5
		c-0.2,0.1-0.5,0.2-0.7,0.3c-0.3,0.1-0.4,0.1-0.5,0.1h0c0,0,0,0,0,0C81.9,12.2,82,12,82.1,11.9z M125.8,12c0,0.1,0,0.2-0.1,0.3
		c-0.1,0.1-0.3,0.2-0.5,0.4c-0.5,0.4-0.8,0.6-0.9,0.6c0,0,0,0,0,0c0,0,0.1-0.1,0.2-0.3c0.1-0.2,0.2-0.4,0.4-0.6
		c0.2-0.2,0.3-0.4,0.5-0.5c0.2-0.2,0.3-0.2,0.4-0.2c0,0,0,0,0.1,0c0,0,0,0,0,0.1C125.8,11.8,125.8,11.8,125.8,12L125.8,12z"/>
</g>
</svg>
