<?xml version="1.0" encoding="utf-8"?>
<!-- Generator: Adobe Illustrator 25.2.3, SVG Export Plug-In . SVG Version: 6.00 Build 0)  -->
<svg version="1.1" id="Layer_1" xmlns="http://www.w3.org/2000/svg" xmlns:xlink="http://www.w3.org/1999/xlink" x="0px" y="0px"
	 viewBox="0 0 134 44.5" style="enable-background:new 0 0 134 44.5;" xml:space="preserve">
<style type="text/css">
	.st0{opacity:0.9;}
	.st1{fill-rule:evenodd;clip-rule:evenodd;fill:#FFFFFF;}
	.st2{fill:#FFFFFF;}
</style>
<g class="st0">
	<path class="st1" d="M22.1,14.9h6.6v17.8c0,1.6-1.3,2.9-2.9,2.9h-7.5l0-1.1h2c1,0,1.8-0.8,1.8-1.8V14.9z M12.8,0.4
		c-1.9,0-3.4,1.5-3.4,3.4s1.5,3.4,3.4,3.4s3.4-1.5,3.4-3.4S14.7,0.4,12.8,0.4z M22.7,6c-0.5,1.9-0.6,4.2-0.6,6c0,0-7.2,0-9.6,0
		c-1.6,0-2.9,1.3-2.9,2.9v24.6c0,2-1.8,3.7-4.1,3.7l0,0c1-0.6,1.7-1.6,1.7-2.8c0-1.8-1.6-3.3-3.5-3.3c-1.9,0-3.5,1.5-3.5,3.3
		c0,1.1,0.6,2.2,1.6,2.7l0,0C3,44,4.7,44.4,6.4,44.4c5.3,0,9.6-4,9.6-8.9l0,0c0,0,0-16.1,0-19.5c0-1.6,1.3-2.9,2.9-2.9
		c4.2,0,14.5,0,14.5,0c0-0.3,0-0.8,0-1.1h-4.9V5.2c0-2.2,1.6-4,3.5-4c0.6,0,1.1,0.1,1.6,0.4c-1.6,0.3-2.8,1.7-2.8,3.3
		c0,1.9,1.5,3.4,3.4,3.4c1.9,0,3.4-1.5,3.4-3.4c0-0.8-0.3-1.5-0.7-2.1c-0.8-0.9-2.3-2.5-6.2-2.7C26.9,0.1,23.8,2.4,22.7,6"/>
	<g>
		<g>
			<path class="st2" d="M50.5,15.7c0,1.1-0.1,2-0.2,2.7c-0.2,0.7-0.5,1.3-0.9,1.7c-0.4,0.4-1,0.7-1.8,0.9c-0.7,0.2-1.7,0.3-2.8,0.3
				v-0.8c0.4-0.1,0.7-0.2,1-0.3c0.3-0.2,0.5-0.4,0.8-0.8c0.2-0.4,0.4-0.9,0.5-1.5c0.1-0.6,0.2-1.4,0.2-2.3V1h3.3V15.7z"/>
			<path class="st2" d="M59.5,16.9c0.9,0,1.6-0.2,2.2-0.6c0.6-0.4,1.1-0.9,1.5-1.5l0.8,0.6c-0.2,0.3-0.4,0.6-0.7,0.9
				c-0.3,0.3-0.6,0.6-1,0.9c-0.4,0.3-0.8,0.5-1.4,0.7c-0.5,0.2-1.1,0.3-1.8,0.3c-0.9,0-1.7-0.2-2.4-0.5c-0.7-0.3-1.3-0.8-1.9-1.3
				c-0.5-0.6-0.9-1.2-1.2-2c-0.3-0.8-0.4-1.6-0.4-2.5c0-1,0.1-1.9,0.4-2.7c0.3-0.8,0.7-1.4,1.2-2c0.5-0.5,1.1-0.9,1.8-1.2
				c0.7-0.3,1.4-0.4,2.2-0.4c0.8,0,1.5,0.1,2.2,0.4c0.7,0.2,1.3,0.6,1.8,1c0.5,0.4,0.9,1,1.2,1.6c0.3,0.6,0.4,1.3,0.4,2.1
				c0,0.2,0,0.4,0,0.6c0,0.2,0,0.4,0,0.5c0,0.2,0,0.4-0.1,0.5h-7.7c0,1.7,0.3,2.9,0.8,3.6C57.9,16.6,58.6,16.9,59.5,16.9z M61,11.1
				c0-0.9-0.1-1.6-0.2-2.1c-0.1-0.6-0.3-1-0.4-1.4c-0.2-0.3-0.4-0.6-0.7-0.7c-0.3-0.1-0.6-0.2-0.9-0.2c-0.3,0-0.6,0.1-0.8,0.2
				c-0.3,0.1-0.5,0.4-0.7,0.7C57.1,8,56.9,8.4,56.8,9c-0.1,0.6-0.2,1.3-0.2,2.1H61z"/>
			<path class="st2" d="M70.6,16.9c1,0,1.6-0.2,2-0.5c0.4-0.3,0.6-0.7,0.6-1.2c0-0.5-0.2-0.9-0.7-1.2c-0.4-0.3-1-0.6-1.6-0.9
				l-1.3-0.6c-1-0.4-1.8-0.9-2.4-1.5c-0.6-0.6-0.9-1.3-0.9-2.1c0-0.6,0.1-1.1,0.4-1.5c0.2-0.4,0.6-0.8,1-1.1c0.4-0.3,1-0.5,1.5-0.7
				c0.6-0.1,1.2-0.2,1.9-0.2c1.1,0,1.9,0.1,2.6,0.3c0.7,0.2,1.2,0.4,1.5,0.8c0.3,0.3,0.5,0.7,0.5,1.3c0.1,0.5,0.1,1.1,0.1,1.8h-0.9
				c-0.1-0.8-0.5-1.5-1-2.1c-0.5-0.6-1.3-0.9-2.3-0.9c-0.8,0-1.3,0.2-1.7,0.5c-0.3,0.3-0.5,0.7-0.5,1.2c0,0.5,0.2,0.8,0.5,1.1
				c0.3,0.3,0.8,0.5,1.3,0.8l1.5,0.6c1.2,0.5,2.1,1,2.7,1.5c0.6,0.5,0.9,1.3,0.9,2.2c0,0.6-0.1,1.1-0.4,1.5
				c-0.3,0.4-0.6,0.8-1.1,1.1c-0.5,0.3-1,0.5-1.6,0.7s-1.3,0.2-2.1,0.2c-1.1,0-1.9-0.1-2.6-0.3c-0.7-0.2-1.2-0.4-1.5-0.8
				c-0.3-0.3-0.5-0.7-0.5-1.3c-0.1-0.5-0.1-1.1-0.1-1.8h0.9c0.1,0.8,0.5,1.5,1,2.1C68.8,16.7,69.6,16.9,70.6,16.9z"/>
			<path class="st2" d="M82.6,16.9c1,0,1.6-0.2,2-0.5c0.4-0.3,0.6-0.7,0.6-1.2c0-0.5-0.2-0.9-0.7-1.2c-0.4-0.3-1-0.6-1.6-0.9
				l-1.3-0.6c-1-0.4-1.8-0.9-2.4-1.5c-0.6-0.6-0.9-1.3-0.9-2.1c0-0.6,0.1-1.1,0.4-1.5c0.2-0.4,0.6-0.8,1-1.1c0.4-0.3,1-0.5,1.5-0.7
				c0.6-0.1,1.2-0.2,1.9-0.2c1.1,0,1.9,0.1,2.6,0.3c0.7,0.2,1.2,0.4,1.5,0.8c0.3,0.3,0.5,0.7,0.5,1.3c0.1,0.5,0.1,1.1,0.1,1.8h-0.9
				c-0.1-0.8-0.5-1.5-1-2.1c-0.5-0.6-1.3-0.9-2.3-0.9c-0.8,0-1.3,0.2-1.7,0.5c-0.3,0.3-0.5,0.7-0.5,1.2c0,0.5,0.2,0.8,0.5,1.1
				c0.3,0.3,0.8,0.5,1.3,0.8l1.5,0.6c1.2,0.5,2.1,1,2.7,1.5c0.6,0.5,0.9,1.3,0.9,2.2c0,0.6-0.1,1.1-0.4,1.5
				c-0.3,0.4-0.6,0.8-1.1,1.1c-0.5,0.3-1,0.5-1.6,0.7s-1.3,0.2-2.1,0.2c-1.1,0-1.9-0.1-2.6-0.3c-0.7-0.2-1.2-0.4-1.5-0.8
				c-0.3-0.3-0.5-0.7-0.5-1.3c-0.1-0.5-0.1-1.1-0.1-1.8h0.9c0.1,0.8,0.5,1.5,1,2.1C80.8,16.7,81.5,16.9,82.6,16.9z"/>
			<path class="st2" d="M91.2,9.1c0-0.8-0.1-1.4-0.3-1.9c-0.2-0.5-0.7-0.7-1.5-0.7h-0.3V5.8h3.1c0.4,0,0.8,0.1,1.1,0.2
				c0.3,0.1,0.5,0.3,0.7,0.5c0.2,0.3,0.3,0.6,0.4,1c0.1,0.4,0.1,1,0.1,1.6v8.7h-3.3V9.1z M94.3,3c0,0.4-0.1,0.8-0.4,1
				c-0.3,0.3-0.6,0.4-1,0.4c-0.6,0-1.1-0.2-1.4-0.6C91.1,3.5,91,3,91,2.5c0-0.4,0.1-0.8,0.4-1c0.3-0.3,0.6-0.4,1-0.4
				c0.6,0,1.1,0.2,1.4,0.6C94.1,2,94.3,2.5,94.3,3z"/>
			<path class="st2" d="M103.5,6.7c-0.9,0-1.6,0.4-2.2,1.3c-0.6,0.8-0.9,2.1-0.9,3.9c0,3.4,1.1,5.1,3.2,5.1c0.9,0,1.6-0.2,2.2-0.6
				c0.6-0.4,1.1-0.9,1.5-1.5l0.8,0.6c-0.2,0.3-0.4,0.6-0.7,0.9c-0.3,0.3-0.6,0.6-1,0.9c-0.4,0.3-0.9,0.5-1.4,0.7
				c-0.5,0.2-1.2,0.3-1.9,0.3c-1,0-1.9-0.2-2.7-0.5c-0.8-0.3-1.4-0.8-1.9-1.4c-0.5-0.6-0.9-1.2-1.2-2c-0.3-0.8-0.4-1.6-0.4-2.4
				c0-0.9,0.1-1.7,0.4-2.4c0.3-0.8,0.6-1.4,1.2-2c0.5-0.6,1.2-1,1.9-1.4c0.8-0.3,1.7-0.5,2.7-0.5c1,0,1.8,0.1,2.5,0.2
				c0.7,0.1,1.2,0.4,1.5,0.7c0.3,0.3,0.5,0.8,0.6,1.3c0.1,0.5,0.1,1.3,0.1,2.3h-0.8c-0.1-1.1-0.4-1.9-1-2.5
				C105.3,7,104.5,6.7,103.5,6.7z"/>
			<path class="st2" d="M114.8,5.6c1.7,0,3,0.4,3.9,1.3c0.9,0.9,1.4,2.2,1.4,4v6.9h-2.2l-0.9-1.2h-0.1c-0.2,0.3-0.4,0.5-0.7,0.7
				c-0.2,0.2-0.6,0.3-0.9,0.5c-0.4,0.1-0.9,0.2-1.4,0.2c-1.4,0-2.5-0.3-3.2-1s-1.1-1.5-1.1-2.5c0-0.6,0.1-1.2,0.3-1.6
				c0.2-0.5,0.6-0.9,1.1-1.2c0.5-0.3,1.2-0.6,2.1-0.8c0.9-0.2,2-0.3,3.4-0.3h0.4c0-1.5-0.2-2.6-0.6-3.2c-0.4-0.6-1-0.9-1.8-0.9
				c-0.3,0-0.6,0-0.8,0.1c-0.3,0.1-0.5,0.2-0.7,0.3c-0.2,0.2-0.4,0.4-0.6,0.7c-0.2,0.3-0.3,0.7-0.4,1.2h-1.4c0-0.4,0-0.9,0.1-1.4
				c0.1-0.5,0.2-0.9,0.5-1.2c0.3-0.3,0.8-0.6,1.5-0.7C113.2,5.6,114,5.6,114.8,5.6z M116.7,12h-0.4c-1.2,0-2.1,0.2-2.6,0.7
				c-0.5,0.4-0.8,1.1-0.8,2c0,0.7,0.1,1.3,0.4,1.6c0.3,0.4,0.7,0.6,1.2,0.6c0.4,0,0.7-0.1,1-0.3c0.3-0.2,0.5-0.4,0.7-0.6
				c0.2-0.2,0.4-0.5,0.5-0.9V12z"/>
		</g>
		<g>
			<path class="st2" d="M56.4,26.4c0.4,0,0.8,0.1,1.1,0.2c0.3,0.1,0.5,0.3,0.7,0.5c0.2,0.2,0.3,0.4,0.3,0.7c0.1,0.2,0.1,0.5,0.1,0.8
				v2.2h-0.8c0-1.1-0.3-1.9-0.8-2.4c-0.6-0.5-1.3-0.7-2.4-0.7H51v6.5h5.6v1.2H51v8.1h-3.3V29.7c0-0.8-0.1-1.4-0.3-1.9
				c-0.2-0.5-0.7-0.7-1.5-0.7h-0.3v-0.8H56.4z"/>
			<path class="st2" d="M65.2,42.4c0.9,0,1.6-0.2,2.2-0.6c0.6-0.4,1.1-0.9,1.5-1.5l0.8,0.6c-0.2,0.3-0.4,0.6-0.7,0.9
				c-0.3,0.3-0.6,0.6-1,0.9c-0.4,0.3-0.8,0.5-1.4,0.7c-0.5,0.2-1.1,0.3-1.8,0.3c-0.9,0-1.7-0.2-2.4-0.5c-0.7-0.3-1.3-0.8-1.9-1.3
				c-0.5-0.6-0.9-1.2-1.2-2c-0.3-0.8-0.4-1.6-0.4-2.5c0-1,0.1-1.9,0.4-2.7c0.3-0.8,0.7-1.4,1.2-2c0.5-0.5,1.1-0.9,1.8-1.2
				c0.7-0.3,1.4-0.4,2.2-0.4c0.8,0,1.5,0.1,2.2,0.4c0.7,0.2,1.3,0.6,1.8,1c0.5,0.4,0.9,1,1.2,1.6c0.3,0.6,0.4,1.3,0.4,2.1
				c0,0.2,0,0.4,0,0.6c0,0.2,0,0.4,0,0.5c0,0.2,0,0.4-0.1,0.5h-7.7c0,1.7,0.3,2.9,0.8,3.6C63.6,42,64.3,42.4,65.2,42.4z M66.7,36.6
				c0-0.9-0.1-1.6-0.2-2.1c-0.1-0.6-0.3-1-0.4-1.4c-0.2-0.3-0.4-0.6-0.7-0.7c-0.3-0.1-0.6-0.2-0.9-0.2c-0.3,0-0.6,0.1-0.8,0.2
				c-0.3,0.1-0.5,0.4-0.7,0.7c-0.2,0.3-0.4,0.8-0.5,1.4c-0.1,0.6-0.2,1.3-0.2,2.1H66.7z"/>
			<path class="st2" d="M78.9,31c0.7,0,1.4,0.2,1.8,0.5c0.2,0.1,0.3,0.2,0.4,0.4c0.1,0.1,0.2,0.3,0.3,0.4c0.1,0.1,0.1,0.3,0.2,0.4
				l-1.3,1c-0.1-0.2-0.3-0.3-0.5-0.5c-0.2-0.1-0.3-0.3-0.5-0.4c-0.2-0.1-0.5-0.2-0.8-0.2c-0.5,0-1,0.1-1.4,0.2
				c-0.4,0.2-0.7,0.3-0.9,0.6c0,0.1,0,0.2,0.1,0.4c0,0.1,0,0.3,0,0.4c0,0.1,0,0.3,0,0.4v8.6H73v-8.7c0-0.4,0-0.7-0.1-1
				c0-0.3-0.1-0.6-0.2-0.8c-0.1-0.2-0.3-0.4-0.5-0.5c-0.2-0.1-0.5-0.2-0.9-0.2H71v-0.8h2.5c0.6,0,1,0.1,1.4,0.2
				c0.3,0.1,0.6,0.4,0.8,0.7c0.3-0.3,0.7-0.5,1.3-0.8C77.5,31.1,78.1,31,78.9,31z"/>
			<path class="st2" d="M89.6,31c0.7,0,1.4,0.2,1.8,0.5c0.2,0.1,0.3,0.2,0.4,0.4c0.1,0.1,0.2,0.3,0.3,0.4c0.1,0.1,0.1,0.3,0.2,0.4
				l-1.3,1c-0.1-0.2-0.3-0.3-0.5-0.5c-0.2-0.1-0.3-0.3-0.5-0.4c-0.2-0.1-0.5-0.2-0.8-0.2c-0.5,0-1,0.1-1.4,0.2
				c-0.4,0.2-0.7,0.3-0.9,0.6c0,0.1,0,0.2,0.1,0.4c0,0.1,0,0.3,0,0.4c0,0.1,0,0.3,0,0.4v8.6h-3.3v-8.7c0-0.4,0-0.7-0.1-1
				c0-0.3-0.1-0.6-0.2-0.8c-0.1-0.2-0.3-0.4-0.5-0.5c-0.2-0.1-0.5-0.2-0.9-0.2h-0.3v-0.8h2.5c0.6,0,1,0.1,1.4,0.2
				c0.3,0.1,0.6,0.4,0.8,0.7c0.3-0.3,0.7-0.5,1.3-0.8C88.2,31.1,88.8,31,89.6,31z"/>
			<path class="st2" d="M99.3,42.4c0.9,0,1.6-0.2,2.2-0.6c0.6-0.4,1.1-0.9,1.5-1.5l0.8,0.6c-0.2,0.3-0.4,0.6-0.7,0.9
				c-0.3,0.3-0.6,0.6-1,0.9c-0.4,0.3-0.8,0.5-1.4,0.7c-0.5,0.2-1.1,0.3-1.8,0.3c-0.9,0-1.7-0.2-2.4-0.5c-0.7-0.3-1.3-0.8-1.9-1.3
				c-0.5-0.6-0.9-1.2-1.2-2c-0.3-0.8-0.4-1.6-0.4-2.5c0-1,0.1-1.9,0.4-2.7c0.3-0.8,0.7-1.4,1.2-2c0.5-0.5,1.1-0.9,1.8-1.2
				c0.7-0.3,1.4-0.4,2.2-0.4c0.8,0,1.5,0.1,2.2,0.4c0.7,0.2,1.3,0.6,1.8,1c0.5,0.4,0.9,1,1.2,1.6c0.3,0.6,0.4,1.3,0.4,2.1
				c0,0.2,0,0.4,0,0.6c0,0.2,0,0.4,0,0.5c0,0.2,0,0.4-0.1,0.5h-7.7c0,1.7,0.3,2.9,0.8,3.6C97.8,42,98.5,42.4,99.3,42.4z M100.9,36.6
				c0-0.9-0.1-1.6-0.2-2.1c-0.1-0.6-0.3-1-0.4-1.4c-0.2-0.3-0.4-0.6-0.7-0.7c-0.3-0.1-0.6-0.2-0.9-0.2c-0.3,0-0.6,0.1-0.8,0.2
				c-0.3,0.1-0.5,0.4-0.7,0.7c-0.2,0.3-0.4,0.8-0.5,1.4c-0.1,0.6-0.2,1.3-0.2,2.1H100.9z"/>
			<path class="st2" d="M107.1,34.6c0-0.8-0.1-1.4-0.3-1.9c-0.2-0.5-0.7-0.7-1.5-0.7h-0.3v-0.8h3.1c0.4,0,0.8,0.1,1.1,0.2
				c0.3,0.1,0.5,0.3,0.7,0.5c0.2,0.3,0.3,0.6,0.4,1c0.1,0.4,0.1,1,0.1,1.6v8.7h-3.3V34.6z M110.2,28.5c0,0.4-0.1,0.8-0.4,1
				c-0.3,0.3-0.6,0.4-1,0.4c-0.6,0-1.1-0.2-1.4-0.6c-0.3-0.4-0.5-0.8-0.5-1.4c0-0.4,0.1-0.8,0.4-1c0.3-0.3,0.6-0.4,1-0.4
				c0.6,0,1.1,0.2,1.4,0.6C110.1,27.5,110.2,27.9,110.2,28.5z"/>
			<path class="st2" d="M119.9,31c0.7,0,1.4,0.2,1.8,0.5c0.2,0.1,0.3,0.2,0.4,0.4c0.1,0.1,0.2,0.3,0.3,0.4c0.1,0.1,0.1,0.3,0.2,0.4
				l-1.3,1c-0.1-0.2-0.3-0.3-0.5-0.5c-0.2-0.1-0.3-0.3-0.5-0.4c-0.2-0.1-0.5-0.2-0.8-0.2c-0.5,0-1,0.1-1.4,0.2
				c-0.4,0.2-0.7,0.3-0.9,0.6c0,0.1,0,0.2,0.1,0.4c0,0.1,0,0.3,0,0.4c0,0.1,0,0.3,0,0.4v8.6H114v-8.7c0-0.4,0-0.7-0.1-1
				c0-0.3-0.1-0.6-0.2-0.8c-0.1-0.2-0.3-0.4-0.5-0.5c-0.2-0.1-0.5-0.2-0.9-0.2H112v-0.8h2.5c0.6,0,1,0.1,1.4,0.2
				c0.3,0.1,0.6,0.4,0.8,0.7c0.3-0.3,0.7-0.5,1.3-0.8C118.5,31.1,119.1,31,119.9,31z"/>
			<path class="st2" d="M128.8,31c1.7,0,3,0.4,3.9,1.3c0.9,0.9,1.4,2.2,1.4,4v6.9h-2.2l-0.9-1.2h-0.1c-0.2,0.3-0.4,0.5-0.7,0.7
				c-0.2,0.2-0.6,0.3-0.9,0.5c-0.4,0.1-0.9,0.2-1.4,0.2c-1.4,0-2.5-0.3-3.2-1c-0.7-0.6-1.1-1.5-1.1-2.5c0-0.6,0.1-1.2,0.3-1.6
				c0.2-0.5,0.6-0.9,1.1-1.2c0.5-0.3,1.2-0.6,2.1-0.8c0.9-0.2,2-0.3,3.4-0.3h0.4c0-1.5-0.2-2.6-0.6-3.2c-0.4-0.6-1-0.9-1.8-0.9
				c-0.3,0-0.6,0-0.8,0.1c-0.3,0.1-0.5,0.2-0.7,0.3c-0.2,0.2-0.4,0.4-0.6,0.7c-0.2,0.3-0.3,0.7-0.4,1.2h-1.4c0-0.4,0-0.9,0.1-1.4
				c0.1-0.5,0.2-0.9,0.5-1.2c0.3-0.3,0.8-0.6,1.5-0.7C127.1,31.1,127.9,31,128.8,31z M130.7,37.4h-0.4c-1.2,0-2.1,0.2-2.6,0.7
				c-0.5,0.4-0.8,1.1-0.8,2c0,0.7,0.1,1.3,0.4,1.6c0.3,0.4,0.7,0.6,1.2,0.6c0.4,0,0.7-0.1,1-0.3c0.3-0.2,0.5-0.4,0.7-0.6
				c0.2-0.2,0.4-0.5,0.5-0.9V37.4z"/>
		</g>
	</g>
</g>
</svg>
