<?xml version="1.0" encoding="utf-8"?>
<!-- Generator: Adobe Illustrator 25.2.3, SVG Export Plug-In . SVG Version: 6.00 Build 0)  -->
<svg version="1.1" id="Layer_1" xmlns="http://www.w3.org/2000/svg" xmlns:xlink="http://www.w3.org/1999/xlink" x="0px" y="0px"
	 viewBox="0 0 500 156.8" style="enable-background:new 0 0 500 156.8;" xml:space="preserve">
<style type="text/css">
	.st0{fill-rule:evenodd;clip-rule:evenodd;fill:#FFFFFF;}
	.st1{fill-rule:evenodd;clip-rule:evenodd;fill:#848484;}
	.st2{fill-rule:evenodd;clip-rule:evenodd;fill:#CCCCCB;}
	.st3{fill-rule:evenodd;clip-rule:evenodd;fill:#3D317D;}
	.st4{fill:#FFFFFF;}
	.st5{fill-rule:evenodd;clip-rule:evenodd;fill:#919191;}
	.st6{fill-rule:evenodd;clip-rule:evenodd;fill:none;stroke:#2C2C2D;stroke-width:1.2503;stroke-miterlimit:10;}
</style>
<g>
	<g>
		<rect x="0.8" y="63.1" class="st0" width="23.8" height="2"/>
		<rect x="133.9" y="63.1" class="st0" width="366.1" height="2"/>
		<g>
			<path class="st0" d="M182.1,24.7c0.3,0,0.6,0.1,1,0.1c0.4,0,0.7,0,1.1,0c0.4,0,0.8,0,1.1,0c0.3,0,0.7-0.1,1-0.1
				c-0.1,1.5-0.2,2.7-0.3,3.7c-0.1,1-0.1,1.8-0.1,2.5v6.3c0,1.7,0,3.1,0.1,4.1c0.1,1.1,0.2,1.9,0.5,2.4c0.5,1.4,1.3,2.3,2.3,3
				c1,0.6,2.4,0.9,4.1,0.9c1.2,0,2.3-0.2,3.3-0.5c1-0.3,1.8-0.9,2.5-1.5c0.7-0.7,1.2-1.5,1.5-2.5c0.3-1,0.4-2.7,0.4-5.1v-0.8v-5.2
				c0-1.6,0-2.9-0.1-4c-0.1-1.1-0.2-2.2-0.3-3.2c0.2,0,0.5,0.1,0.7,0.1c0.3,0,0.5,0,0.8,0c0.3,0,0.6,0,0.8,0c0.3,0,0.5-0.1,0.7-0.1
				c-0.1,1-0.3,2.2-0.3,3.7c-0.1,1.4-0.1,3.1-0.1,5v6.1c0,3.4-0.9,5.9-2.7,7.5c-1.8,1.7-4.4,2.5-8,2.5c-2.1,0-3.9-0.3-5.3-0.9
				c-1.4-0.6-2.5-1.5-3.2-2.7c-0.5-0.7-0.8-1.6-1-2.5c-0.2-0.9-0.3-2.4-0.3-4.3v-1.2v-7.1c0-1.1,0-2.2-0.1-3.2
				C182.3,26.6,182.2,25.6,182.1,24.7z M208.3,49c0.1-0.9,0.1-2.1,0.2-3.7c0-1.5,0.1-3.7,0.1-6.6c0-1.9,0-3.3-0.1-4.3
				c0-0.9-0.1-1.8-0.2-2.5c0.2,0,0.5,0.1,0.8,0.1c0.3,0,0.6,0,0.9,0c0.3,0,0.6,0,0.9,0c0.3,0,0.5-0.1,0.8-0.1c0,0.8,0,1.4-0.1,1.9
				c0,0.4,0,0.8,0,1.2c0.7-1.1,1.6-2,2.6-2.6c1-0.6,2.2-0.9,3.5-0.9c0.9,0,1.7,0.2,2.4,0.5c0.7,0.3,1.4,0.8,1.9,1.3
				c0.4,0.5,0.7,1,0.8,1.6c0.2,0.6,0.2,1.6,0.2,2.9V43c0,1,0,2.1,0,3c0,1,0.1,2,0.1,2.9c-0.3-0.1-0.6-0.1-0.9-0.1
				c-0.3,0-0.6,0-0.8,0c-0.3,0-0.5,0-0.8,0c-0.3,0-0.6,0.1-0.9,0.1c0.1-2,0.2-3.6,0.2-4.8c0-1.2,0.1-2.3,0.1-3.2v-1.8
				c0-1.2-0.1-2.1-0.2-2.7c-0.1-0.6-0.3-1.1-0.6-1.4c-0.4-0.4-0.8-0.8-1.3-1c-0.5-0.2-1.1-0.3-1.7-0.3c-1.5,0-2.7,0.6-3.4,1.7
				c-0.7,1.1-1.1,3-1.1,5.4c0,1.7,0,3.2,0,4.5c0,1.3,0.1,2.5,0.1,3.6c-0.3-0.1-0.6-0.1-0.9-0.1c-0.3,0-0.6,0-0.8,0
				c-0.3,0-0.6,0-0.8,0C209,48.9,208.7,48.9,208.3,49z M228,25.9c0-0.6,0.2-1.1,0.6-1.4c0.4-0.4,0.9-0.6,1.4-0.6
				c0.7,0,1.2,0.2,1.5,0.5c0.4,0.4,0.5,0.9,0.5,1.5c0,0.6-0.2,1-0.5,1.4c-0.3,0.3-0.8,0.5-1.4,0.5c-0.7,0-1.2-0.2-1.6-0.5
				C228.2,26.9,228,26.5,228,25.9z M228.1,49c0.1-1,0.1-2.4,0.2-4c0-1.7,0.1-3.8,0.1-6.3c0-1.6,0-3-0.1-4c0-1-0.1-1.9-0.2-2.8
				c0.3,0,0.5,0.1,0.8,0.1c0.3,0,0.6,0,0.9,0c0.3,0,0.7,0,1,0c0.3,0,0.6-0.1,0.8-0.1c-0.1,0.8-0.1,1.6-0.2,2.4
				c0,0.9-0.1,2.2-0.1,3.9c0,2.4,0,4.4,0.1,6.2c0,1.8,0.1,3.3,0.2,4.5c-0.3-0.1-0.7-0.1-0.9-0.1c-0.3,0-0.6,0-0.9,0
				c-0.3,0-0.6,0-0.8,0C228.7,48.9,228.4,48.9,228.1,49z M241.6,49c-0.4-1.5-1.2-3.7-2.4-6.6c-1.2-2.9-2.8-6.4-4.7-10.4
				c0.3,0,0.7,0.1,1.1,0.1c0.4,0,0.8,0,1.2,0c0.4,0,0.8,0,1.2,0c0.4,0,0.7-0.1,1-0.1c0.4,1.3,0.8,2.5,1.1,3.6c0.4,1.1,0.7,2.1,1.1,3
				l2.8,7l3-7.9c0.3-0.9,0.6-1.8,0.9-2.7c0.3-0.9,0.6-1.9,0.9-3c0.2,0,0.5,0.1,0.7,0.1c0.2,0,0.5,0,0.8,0c0.3,0,0.6,0,0.8,0
				c0.3,0,0.5-0.1,0.7-0.1c-1.3,2.3-2.5,4.9-3.7,7.6c-1.2,2.8-2.5,5.9-3.8,9.4c-0.2-0.1-0.4-0.1-0.7-0.2c-0.2,0-0.5-0.1-0.7-0.1
				c-0.2,0-0.4,0-0.6,0.1C242,48.9,241.8,48.9,241.6,49z M256.3,38.8h1.7c0.9,0,2.7,0,5.2-0.1c0.7,0,1.3,0,1.7,0
				c0-0.2,0-0.4,0.1-0.6c0-0.2,0-0.3,0-0.5c0-1.5-0.4-2.7-1.1-3.5c-0.7-0.9-1.7-1.3-3-1.3c-1.4,0-2.4,0.5-3.2,1.5
				C256.9,35.4,256.5,36.9,256.3,38.8z M256.2,40.3l0,0.3c0,2.3,0.5,4.1,1.5,5.4c1,1.3,2.5,1.9,4.3,1.9c1.1,0,2.1-0.2,3-0.6
				c0.9-0.4,1.6-1,2.2-1.7l0.5,0.1c-0.1,0.2-0.1,0.5-0.1,0.8c0,0.3-0.1,0.7-0.1,1.3c-0.9,0.5-1.8,1-2.9,1.2
				c-1.1,0.3-2.2,0.4-3.4,0.4c-2.7,0-4.8-0.8-6.3-2.3c-1.5-1.5-2.3-3.7-2.3-6.4c0-2.8,0.7-5,2.3-6.7c1.5-1.7,3.5-2.5,6-2.5
				c2.4,0,4.2,0.7,5.5,2.1c1.3,1.4,2,3.3,2,5.7c0,0.3,0,0.5,0,0.7c0,0.1,0,0.3,0,0.4c-0.1,0-0.2,0-0.3,0c-3.3-0.1-5.8-0.1-7.3-0.1
				c-0.6,0-1.2,0-1.8,0C258.3,40.3,257.4,40.3,256.2,40.3z M271.7,49c0.1-0.7,0.2-1.9,0.2-3.5c0-1.6,0.1-4.2,0.1-7.8
				c0-1.5,0-2.7-0.1-3.5c0-0.8-0.1-1.6-0.2-2.3c0.3,0,0.6,0.1,0.9,0.1c0.3,0,0.6,0,1,0c0.4,0,0.7,0,1,0c0.3,0,0.6-0.1,0.9-0.1
				c-0.1,0.6-0.2,1.2-0.2,1.7c0,0.5-0.1,1-0.1,1.5v0.4c0.7-1.4,1.5-2.4,2.4-3c0.9-0.7,2-1,3.2-1c0.2,0,0.4,0,0.5,0
				c0.1,0,0.2,0,0.3,0c0,0.4-0.1,0.7-0.1,1c0,0.2,0,0.5,0,0.7c0,0.4,0,0.9,0.1,1.7c0,0,0,0.1,0,0.1c-0.6-0.1-1-0.2-1.4-0.3
				c-0.4-0.1-0.7-0.1-1-0.1c-0.5,0-1,0.1-1.5,0.3c-0.5,0.2-0.9,0.5-1.2,0.9c-0.5,0.5-0.8,1.1-1,1.7c-0.2,0.6-0.3,1.5-0.3,2.6v0.7v3
				c0,0.8,0,1.6,0.1,2.4c0.1,0.9,0.1,1.8,0.2,2.7c-0.4-0.1-0.8-0.1-1.1-0.1c-0.3,0-0.6,0-0.8,0c-0.3,0-0.6,0-0.8,0
				C272.3,48.9,272,48.9,271.7,49z M284.7,44.7h0.3c0.3,1.1,0.7,1.9,1.4,2.5c0.7,0.5,1.6,0.8,2.8,0.8c1.2,0,2.2-0.3,2.8-0.8
				c0.7-0.5,1-1.3,1-2.3c0-1.3-1.2-2.3-3.5-3c-0.4-0.1-0.7-0.2-0.9-0.3c-1.7-0.5-2.9-1.2-3.6-1.9c-0.7-0.7-1.1-1.7-1.1-2.8
				c0-1.7,0.6-3,1.7-4c1.2-1,2.7-1.5,4.6-1.5c0.8,0,1.5,0.1,2.3,0.3s1.6,0.5,2.4,0.9c0,0.1-0.2,0.6-0.4,1.3
				c-0.2,0.7-0.5,1.3-0.6,1.8h-0.3c-0.2-0.9-0.5-1.6-1.1-2.1c-0.6-0.5-1.4-0.7-2.4-0.7c-1,0-1.8,0.3-2.4,0.8
				c-0.6,0.5-0.9,1.2-0.9,2.1c0,1.2,1.2,2.1,3.6,2.9c0.3,0.1,0.5,0.1,0.6,0.2c1.9,0.6,3.1,1.2,3.8,1.9c0.7,0.7,1,1.7,1,2.9
				c0,1.8-0.6,3.2-1.9,4.2c-1.3,1-3,1.5-5.2,1.5c-0.9,0-1.8-0.1-2.6-0.3c-0.8-0.2-1.6-0.5-2.4-0.8c0.1-0.4,0.2-0.9,0.3-1.4
				C284.2,46.5,284.4,45.7,284.7,44.7z M299.9,25.9c0-0.6,0.2-1.1,0.6-1.4c0.4-0.4,0.9-0.6,1.4-0.6c0.7,0,1.2,0.2,1.5,0.5
				c0.4,0.4,0.5,0.9,0.5,1.5c0,0.6-0.2,1-0.5,1.4c-0.4,0.3-0.8,0.5-1.4,0.5c-0.7,0-1.2-0.2-1.6-0.5C300,26.9,299.9,26.5,299.9,25.9z
				 M299.9,49c0.1-1,0.1-2.4,0.2-4c0-1.7,0.1-3.8,0.1-6.3c0-1.6,0-3-0.1-4c0-1-0.1-1.9-0.2-2.8c0.3,0,0.5,0.1,0.8,0.1
				c0.3,0,0.6,0,0.9,0c0.3,0,0.7,0,1,0c0.3,0,0.6-0.1,0.8-0.1c-0.1,0.8-0.1,1.6-0.2,2.4c0,0.9-0.1,2.2-0.1,3.9c0,2.4,0,4.4,0.1,6.2
				c0,1.8,0.1,3.3,0.2,4.5c-0.3-0.1-0.7-0.1-0.9-0.1c-0.3,0-0.6,0-0.9,0c-0.3,0-0.6,0-0.8,0C300.6,48.9,300.3,48.9,299.9,49z
				 M311.4,40.3c0,2.3,0.4,4,1.2,5.2c0.8,1.2,2,1.9,3.4,1.9c1.5,0,2.7-0.6,3.5-1.9c0.8-1.2,1.3-3,1.3-5.2c0-2.3-0.4-4-1.3-5.3
				c-0.8-1.3-2-1.9-3.5-1.9c-1.4,0-2.6,0.6-3.4,1.9C311.9,36.4,311.4,38.1,311.4,40.3z M324,22.3c-0.1,1.3-0.1,2.7-0.2,4.2
				c0,1.5,0,3.4,0,5.6c0,4.1,0,7.6,0.1,10.4c0,2.8,0.1,5,0.1,6.5c-0.3-0.1-0.6-0.1-0.9-0.1c-0.3,0-0.5,0-0.8,0c-0.3,0-0.5,0-0.8,0
				c-0.3,0-0.6,0.1-0.9,0.1c0.1-0.5,0.1-1.1,0.1-1.6c0-0.5,0.1-1,0.1-1.6c-0.7,1.2-1.5,2.1-2.4,2.7c-0.9,0.6-2.1,0.9-3.4,0.9
				c-2.3,0-4.1-0.8-5.4-2.4c-1.3-1.6-1.9-3.9-1.9-6.8c0-2.7,0.6-4.8,1.9-6.4c1.3-1.6,3-2.4,5.2-2.4c1.3,0,2.5,0.2,3.4,0.7
				c0.9,0.5,1.7,1.3,2.3,2.3v-5.2c0-2.1,0-3.6,0-4.5c0-0.9-0.1-1.8-0.2-2.5c0.3,0,0.6,0.1,0.8,0.1c0.3,0,0.6,0,0.9,0
				c0.3,0,0.7,0,0.9,0C323.5,22.3,323.8,22.3,324,22.3z M337.6,46.8c-0.7,0.9-1.6,1.5-2.5,2c-0.9,0.5-1.9,0.7-2.9,0.7
				c-1.5,0-2.6-0.4-3.6-1.3c-0.9-0.9-1.4-2-1.4-3.4c0-1.5,0.4-2.6,1.2-3.4c0.8-0.8,2.3-1.4,4.6-1.9l3.3-0.7c0.5-0.1,0.9-0.3,1.1-0.6
				c0.2-0.3,0.3-0.7,0.3-1.2c0-1.2-0.4-2.2-1.1-3c-0.7-0.7-1.7-1.1-3-1.1c-1,0-1.9,0.3-2.6,0.7c-0.7,0.5-1.3,1.2-1.7,2.1l-0.7-0.3
				l0.2-1.9c0.8-0.7,1.6-1.2,2.6-1.6c0.9-0.4,2-0.5,3.2-0.5c2.2,0,3.7,0.4,4.7,1.3c0.9,0.9,1.4,2.3,1.4,4.4v8.4
				c0,0.9,0.1,1.4,0.3,1.7c0.2,0.2,0.6,0.4,1.2,0.4c0,0,0.1,0,0.1,0c0.3,0,0.6,0,0.9,0v0.7c-0.7,0.3-1.3,0.5-1.8,0.7
				c-0.5,0.1-1,0.2-1.4,0.2c-0.7,0-1.3-0.2-1.6-0.6C338,48.2,337.7,47.6,337.6,46.8z M337.6,40l-2.1,0.4c-1.7,0.3-2.9,0.8-3.6,1.4
				c-0.8,0.6-1.1,1.4-1.1,2.4c0,0.9,0.3,1.7,0.8,2.3c0.5,0.6,1.2,0.9,2.1,0.9c1.2,0,2.2-0.4,2.9-1.1c0.7-0.7,1.1-1.7,1.1-3V40z
				 M348.1,40.3c0,2.3,0.4,4,1.2,5.2c0.8,1.2,2,1.9,3.4,1.9c1.5,0,2.7-0.6,3.5-1.9c0.8-1.2,1.3-3,1.3-5.2c0-2.3-0.4-4-1.3-5.3
				c-0.8-1.3-2-1.9-3.5-1.9c-1.4,0-2.6,0.6-3.4,1.9C348.6,36.4,348.1,38.1,348.1,40.3z M360.7,22.3c-0.1,1.3-0.1,2.7-0.2,4.2
				c0,1.5,0,3.4,0,5.6c0,4.1,0,7.6,0.1,10.4c0,2.8,0.1,5,0.1,6.5c-0.3-0.1-0.6-0.1-0.9-0.1c-0.3,0-0.5,0-0.8,0c-0.3,0-0.5,0-0.8,0
				c-0.3,0-0.6,0.1-0.9,0.1c0.1-0.5,0.1-1.1,0.1-1.6c0-0.5,0.1-1,0.1-1.6c-0.7,1.2-1.5,2.1-2.4,2.7c-0.9,0.6-2.1,0.9-3.4,0.9
				c-2.3,0-4.1-0.8-5.4-2.4c-1.3-1.6-1.9-3.9-1.9-6.8c0-2.7,0.6-4.8,1.9-6.4c1.3-1.6,3-2.4,5.2-2.4c1.3,0,2.5,0.2,3.4,0.7
				c0.9,0.5,1.7,1.3,2.3,2.3v-5.2c0-2.1,0-3.6,0-4.5c0-0.9-0.1-1.8-0.2-2.5c0.3,0,0.6,0.1,0.8,0.1c0.3,0,0.6,0,0.9,0
				c0.3,0,0.7,0,0.9,0C360.2,22.3,360.4,22.3,360.7,22.3z M367.6,38.8h1.7c0.9,0,2.7,0,5.2-0.1c0.7,0,1.3,0,1.7,0
				c0-0.2,0-0.4,0.1-0.6c0-0.2,0-0.3,0-0.5c0-1.5-0.4-2.7-1.1-3.5c-0.7-0.9-1.7-1.3-3-1.3c-1.4,0-2.4,0.5-3.2,1.5
				C368.2,35.4,367.7,36.9,367.6,38.8z M367.5,40.3l0,0.3c0,2.3,0.5,4.1,1.5,5.4c1,1.3,2.5,1.9,4.3,1.9c1.1,0,2.1-0.2,3-0.6
				c0.9-0.4,1.6-1,2.2-1.7l0.5,0.1c-0.1,0.2-0.1,0.5-0.1,0.8c0,0.3-0.1,0.7-0.1,1.3c-0.9,0.5-1.8,1-2.9,1.2s-2.2,0.4-3.4,0.4
				c-2.7,0-4.8-0.8-6.3-2.3c-1.5-1.5-2.3-3.7-2.3-6.4c0-2.8,0.7-5,2.3-6.7c1.5-1.7,3.5-2.5,6-2.5c2.4,0,4.2,0.7,5.5,2.1
				c1.3,1.4,2,3.3,2,5.7c0,0.3,0,0.5,0,0.7c0,0.1,0,0.3,0,0.4c-0.1,0-0.2,0-0.3,0c-3.3-0.1-5.8-0.1-7.3-0.1c-0.6,0-1.2,0-1.8,0
				C369.6,40.3,368.7,40.3,367.5,40.3z M397.1,36.9v3.8c0,1.7,0,3.3,0.1,4.7c0,1.4,0.1,2.6,0.2,3.6c-0.3-0.1-0.6-0.1-0.9-0.1
				c-0.3,0-0.7,0-1.1,0c-0.4,0-0.8,0-1.1,0c-0.3,0-0.6,0.1-0.9,0.1c0.1-1.7,0.3-3.6,0.3-5.6c0.1-2,0.1-4.2,0.1-6.5
				c0-2.6,0-4.9-0.1-6.9c-0.1-2-0.2-3.7-0.3-5.3c1.2,0,2.4,0,3.5,0.1c1.1,0,2.3,0,3.4,0c1.1,0,2.2,0,3.2,0c1.1,0,2.1,0,3.1-0.1
				c0,0.2-0.1,0.4-0.1,0.6c0,0.2,0,0.4,0,0.6c0,0.2,0,0.4,0,0.6c0,0.2,0,0.4,0.1,0.7c-1-0.2-2-0.3-2.9-0.4c-1-0.1-1.9-0.1-2.9-0.1
				h-3.4c0,0.9,0,1.7,0,2.5c0,0.8,0,1.6,0,2.4v3.7h3.6c0.8,0,1.5,0,2.4-0.1c0.8-0.1,1.7-0.1,2.6-0.2c0,0.2-0.1,0.4-0.1,0.6
				c0,0.2,0,0.3,0,0.5c0,0.2,0,0.6,0.1,1.1c0,0.1,0,0.1,0,0.2c-1.2-0.1-2.2-0.2-3-0.2c-0.8-0.1-1.5-0.1-2.1-0.1H397.1z M412,38.8
				h1.7c0.9,0,2.7,0,5.2-0.1c0.7,0,1.3,0,1.7,0c0-0.2,0-0.4,0.1-0.6c0-0.2,0-0.3,0-0.5c0-1.5-0.4-2.7-1.1-3.5
				c-0.7-0.9-1.7-1.3-3-1.3c-1.4,0-2.4,0.5-3.2,1.5C412.6,35.4,412.1,36.9,412,38.8z M411.9,40.3l0,0.3c0,2.3,0.5,4.1,1.5,5.4
				c1,1.3,2.5,1.9,4.3,1.9c1.1,0,2.1-0.2,3-0.6c0.9-0.4,1.6-1,2.2-1.7l0.5,0.1c-0.1,0.2-0.1,0.5-0.1,0.8c0,0.3-0.1,0.7-0.1,1.3
				c-0.9,0.5-1.8,1-2.9,1.2c-1.1,0.3-2.2,0.4-3.4,0.4c-2.7,0-4.8-0.8-6.3-2.3c-1.5-1.5-2.3-3.7-2.3-6.4c0-2.8,0.7-5,2.3-6.7
				c1.5-1.7,3.5-2.5,6-2.5c2.4,0,4.2,0.7,5.5,2.1c1.3,1.4,2,3.3,2,5.7c0,0.3,0,0.5,0,0.7c0,0.1,0,0.3,0,0.4c-0.1,0-0.2,0-0.3,0
				c-3.3-0.1-5.8-0.1-7.3-0.1c-0.6,0-1.2,0-1.8,0C414,40.3,413,40.3,411.9,40.3z M430,40.3c0,2.3,0.4,4,1.2,5.2
				c0.8,1.2,2,1.9,3.4,1.9c1.5,0,2.7-0.6,3.5-1.9c0.8-1.2,1.3-3,1.3-5.2c0-2.3-0.4-4-1.3-5.3c-0.8-1.3-2-1.9-3.5-1.9
				c-1.4,0-2.6,0.6-3.4,1.9C430.5,36.4,430,38.1,430,40.3z M442.6,22.3c-0.1,1.3-0.1,2.7-0.2,4.2c0,1.5,0,3.4,0,5.6
				c0,4.1,0,7.6,0.1,10.4c0,2.8,0.1,5,0.1,6.5c-0.3-0.1-0.6-0.1-0.9-0.1c-0.3,0-0.5,0-0.8,0c-0.3,0-0.5,0-0.8,0
				c-0.3,0-0.6,0.1-0.9,0.1c0.1-0.5,0.1-1.1,0.1-1.6c0-0.5,0.1-1,0.1-1.6c-0.7,1.2-1.5,2.1-2.4,2.7c-0.9,0.6-2.1,0.9-3.4,0.9
				c-2.3,0-4.1-0.8-5.4-2.4c-1.3-1.6-1.9-3.9-1.9-6.8c0-2.7,0.6-4.8,1.9-6.4c1.3-1.6,3-2.4,5.2-2.4c1.3,0,2.5,0.2,3.4,0.7
				c0.9,0.5,1.7,1.3,2.3,2.3v-5.2c0-2.1,0-3.6,0-4.5c0-0.9-0.1-1.8-0.2-2.5c0.3,0,0.6,0.1,0.8,0.1c0.3,0,0.6,0,0.9,0
				c0.3,0,0.7,0,0.9,0C442.1,22.3,442.4,22.3,442.6,22.3z M449.5,38.8h1.7c0.9,0,2.7,0,5.2-0.1c0.7,0,1.3,0,1.7,0
				c0-0.2,0-0.4,0.1-0.6c0-0.2,0-0.3,0-0.5c0-1.5-0.4-2.7-1.1-3.5c-0.7-0.9-1.7-1.3-3-1.3c-1.4,0-2.4,0.5-3.2,1.5
				C450.1,35.4,449.6,36.9,449.5,38.8z M449.4,40.3l0,0.3c0,2.3,0.5,4.1,1.5,5.4c1,1.3,2.5,1.9,4.3,1.9c1.1,0,2.1-0.2,3-0.6
				c0.9-0.4,1.6-1,2.2-1.7l0.5,0.1c-0.1,0.2-0.1,0.5-0.1,0.8c0,0.3-0.1,0.7-0.1,1.3c-0.9,0.5-1.8,1-2.9,1.2
				c-1.1,0.3-2.2,0.4-3.4,0.4c-2.7,0-4.8-0.8-6.3-2.3c-1.5-1.5-2.3-3.7-2.3-6.4c0-2.8,0.7-5,2.3-6.7c1.5-1.7,3.5-2.5,6-2.5
				c2.4,0,4.2,0.7,5.5,2.1c1.3,1.4,2,3.3,2,5.7c0,0.3,0,0.5,0,0.7c0,0.1,0,0.3,0,0.4c-0.1,0-0.2,0-0.3,0c-3.3-0.1-5.8-0.1-7.3-0.1
				c-0.6,0-1.2,0-1.8,0C451.5,40.3,450.6,40.3,449.4,40.3z M464.9,49c0.1-0.7,0.2-1.9,0.2-3.5c0-1.6,0.1-4.2,0.1-7.8
				c0-1.5,0-2.7-0.1-3.5c0-0.8-0.1-1.6-0.2-2.3c0.3,0,0.6,0.1,0.9,0.1c0.3,0,0.6,0,1,0c0.3,0,0.7,0,1,0c0.3,0,0.6-0.1,0.9-0.1
				c-0.1,0.6-0.2,1.2-0.2,1.7c0,0.5-0.1,1-0.1,1.5v0.4c0.7-1.4,1.5-2.4,2.4-3c0.9-0.7,2-1,3.2-1c0.2,0,0.4,0,0.5,0
				c0.1,0,0.2,0,0.3,0c0,0.4-0.1,0.7-0.1,1c0,0.2,0,0.5,0,0.7c0,0.4,0,0.9,0.1,1.7c0,0,0,0.1,0,0.1c-0.6-0.1-1-0.2-1.4-0.3
				c-0.4-0.1-0.7-0.1-1-0.1c-0.5,0-1,0.1-1.5,0.3c-0.5,0.2-0.9,0.5-1.2,0.9c-0.5,0.5-0.8,1.1-1,1.7c-0.2,0.6-0.3,1.5-0.3,2.6v0.7v3
				c0,0.8,0,1.6,0.1,2.4c0.1,0.9,0.1,1.8,0.2,2.7c-0.4-0.1-0.8-0.1-1.1-0.1c-0.3,0-0.6,0-0.8,0c-0.3,0-0.6,0-0.8,0
				C465.5,48.9,465.2,48.9,464.9,49z"/>
			<path class="st0" d="M486.6,46.8c-0.7,0.9-1.6,1.5-2.5,2c-0.9,0.5-1.9,0.7-2.9,0.7c-1.5,0-2.6-0.4-3.6-1.3
				c-0.9-0.9-1.4-2-1.4-3.4c0-1.5,0.4-2.6,1.2-3.4c0.8-0.8,2.3-1.4,4.6-1.9l3.3-0.7c0.5-0.1,0.9-0.3,1.1-0.6
				c0.2-0.3,0.3-0.7,0.3-1.2c0-1.2-0.4-2.2-1.1-3c-0.7-0.7-1.7-1.1-3-1.1c-1,0-1.9,0.3-2.6,0.7c-0.7,0.5-1.3,1.2-1.7,2.1l-0.7-0.3
				l0.2-1.9c0.8-0.7,1.6-1.2,2.6-1.6c0.9-0.4,2-0.5,3.2-0.5c2.2,0,3.7,0.4,4.7,1.3c0.9,0.9,1.4,2.3,1.4,4.4v8.4
				c0,0.9,0.1,1.4,0.3,1.7c0.2,0.2,0.6,0.4,1.2,0.4c0,0,0.1,0,0.1,0c0.3,0,0.6,0,0.9,0v0.7c-0.7,0.3-1.3,0.5-1.8,0.7
				c-0.5,0.1-1,0.2-1.4,0.2c-0.7,0-1.3-0.2-1.6-0.6C487,48.2,486.8,47.6,486.6,46.8z M486.6,40l-2.1,0.4c-1.7,0.3-2.9,0.8-3.6,1.4
				c-0.8,0.6-1.1,1.4-1.1,2.4c0,0.9,0.3,1.7,0.8,2.3c0.5,0.6,1.2,0.9,2.1,0.9c1.2,0,2.2-0.4,2.9-1.1c0.7-0.7,1.1-1.7,1.1-3V40z
				 M494.7,49c0-0.7,0.1-1.3,0.1-1.9c0-0.6,0-1,0-1.2c0-1.2,0-3.4,0-6.7c0-3.3,0-6,0-8.1V28c0-1.3,0-2.4-0.1-3.3
				c0-0.9-0.1-1.7-0.2-2.5c0.3,0,0.5,0.1,0.8,0.1c0.3,0,0.6,0,0.9,0c0.3,0,0.6,0,0.9,0c0.3,0,0.6-0.1,0.8-0.1
				c-0.1,0.8-0.1,1.8-0.2,2.8c0,1-0.1,2.3-0.1,3.8v1.8c0,5.3,0,9.4,0.1,12.4c0,3,0.1,4.9,0.2,5.9c-0.3-0.1-0.6-0.1-0.9-0.1
				c-0.3,0-0.6,0-0.8,0c-0.3,0-0.5,0-0.8,0C495.4,48.9,495.1,48.9,494.7,49z"/>
		</g>
		<path class="st0" d="M184.8,93.4c0,2.3,0.4,4.2,1.3,5.5c0.9,1.3,2.1,1.9,3.6,1.9c1.6,0,2.8-0.6,3.7-1.9c0.9-1.3,1.3-3.1,1.3-5.4
			c0-2.4-0.4-4.2-1.3-5.5c-0.9-1.3-2.1-2-3.7-2c-1.5,0-2.7,0.7-3.6,2C185.2,89.3,184.8,91.1,184.8,93.4z M197.9,74.6
			c-0.1,1.3-0.1,2.8-0.2,4.4c0,1.6,0,3.5,0,5.8c0,4.3,0,7.9,0.1,10.9c0,3,0.1,5.2,0.1,6.8c-0.3-0.1-0.6-0.1-0.9-0.1
			c-0.3,0-0.6,0-0.8,0c-0.3,0-0.6,0-0.8,0c-0.3,0-0.6,0.1-0.9,0.1c0.1-0.6,0.1-1.1,0.2-1.7c0-0.6,0.1-1.1,0.1-1.6
			c-0.7,1.3-1.6,2.2-2.5,2.8c-1,0.6-2.2,0.9-3.5,0.9c-2.4,0-4.3-0.8-5.6-2.5c-1.3-1.7-2-4-2-7.1c0-2.8,0.7-5,2-6.7
			c1.3-1.7,3.2-2.5,5.4-2.5c1.4,0,2.6,0.3,3.6,0.8c1,0.5,1.8,1.3,2.4,2.4v-5.4c0-2.2,0-3.7,0-4.7c0-1-0.1-1.9-0.2-2.6
			c0.3,0,0.6,0.1,0.9,0.1c0.3,0,0.6,0,1,0c0.4,0,0.7,0,1,0C197.3,74.7,197.6,74.6,197.9,74.6z M205.1,91.8h1.8c1,0,2.8,0,5.4-0.1
			c0.8,0,1.3,0,1.8,0c0-0.2,0-0.4,0.1-0.6c0-0.2,0-0.3,0-0.5c0-1.5-0.4-2.8-1.2-3.7c-0.8-0.9-1.8-1.4-3.1-1.4
			c-1.4,0-2.5,0.5-3.3,1.6C205.7,88.3,205.2,89.8,205.1,91.8z M205,93.4l0,0.3c0,2.4,0.5,4.3,1.6,5.6c1.1,1.3,2.6,2,4.5,2
			c1.2,0,2.2-0.2,3.1-0.6c0.9-0.4,1.7-1,2.3-1.8L217,99c-0.1,0.2-0.1,0.5-0.2,0.8c0,0.3-0.1,0.8-0.2,1.3c-0.9,0.6-1.9,1-3,1.3
			c-1.1,0.3-2.3,0.4-3.5,0.4c-2.8,0-5-0.8-6.5-2.4c-1.6-1.6-2.4-3.8-2.4-6.7c0-2.9,0.8-5.2,2.3-7c1.6-1.8,3.7-2.6,6.3-2.6
			c2.5,0,4.4,0.7,5.8,2.2c1.4,1.4,2.1,3.4,2.1,6c0,0.3,0,0.5,0,0.7c0,0.2,0,0.3,0,0.4c-0.1,0-0.2,0-0.3,0c-3.5-0.1-6-0.1-7.6-0.1
			c-0.6,0-1.2,0-1.9,0C207.1,93.3,206.2,93.3,205,93.4z M251.7,82.4h-0.4c-0.8-1.4-1.9-2.4-3.1-3.1c-1.2-0.7-2.7-1-4.4-1
			c-2.9,0-5.2,1-6.9,3c-1.7,2-2.5,4.8-2.5,8.3c0,3.5,0.9,6.3,2.6,8.4c1.7,2.1,4.1,3.1,7,3.1c1.5,0,2.9-0.3,4.2-0.9
			c1.3-0.6,2.6-1.6,3.8-2.9l0.4,0.2c-0.1,0.5-0.2,1-0.3,1.5c-0.1,0.5-0.1,1-0.1,1.6c-1.4,0.8-2.9,1.4-4.3,1.8
			c-1.5,0.4-3,0.6-4.5,0.6c-4.1,0-7.2-1.2-9.6-3.5c-2.3-2.4-3.5-5.6-3.5-9.7c0-4,1.2-7.2,3.7-9.6c2.4-2.3,5.8-3.5,10-3.5
			c1.5,0,2.9,0.2,4.4,0.5c1.5,0.3,3,0.8,4.5,1.5c-0.3,0.5-0.5,1.1-0.6,1.7C252,80.9,251.8,81.6,251.7,82.4z M265.6,100.1
			c-0.8,0.9-1.6,1.6-2.6,2.1c-1,0.5-2,0.7-3.1,0.7c-1.5,0-2.8-0.5-3.7-1.3c-0.9-0.9-1.4-2.1-1.4-3.5c0-1.6,0.4-2.8,1.2-3.5
			c0.8-0.8,2.4-1.4,4.8-2l3.4-0.7c0.5-0.1,0.9-0.3,1.1-0.6s0.3-0.7,0.3-1.3c0-1.3-0.4-2.3-1.1-3.1c-0.7-0.7-1.8-1.1-3.1-1.1
			c-1.1,0-2,0.3-2.7,0.8c-0.8,0.5-1.3,1.2-1.7,2.2l-0.8-0.3l0.2-2c0.8-0.7,1.7-1.3,2.7-1.6c1-0.4,2.1-0.6,3.3-0.6
			c2.3,0,3.9,0.5,4.9,1.4c1,0.9,1.5,2.4,1.5,4.5v8.8c0,0.9,0.1,1.5,0.3,1.7c0.2,0.3,0.6,0.4,1.3,0.4c0,0,0.1,0,0.1,0
			c0.3,0,0.6,0,0.9,0v0.8c-0.7,0.3-1.3,0.6-1.9,0.7c-0.6,0.2-1.1,0.2-1.5,0.2c-0.7,0-1.3-0.2-1.7-0.6
			C265.9,101.6,265.7,101,265.6,100.1z M265.6,93l-2.2,0.4c-1.7,0.3-3,0.8-3.8,1.4c-0.8,0.6-1.2,1.5-1.2,2.5c0,1,0.3,1.8,0.8,2.4
			c0.5,0.6,1.3,0.9,2.2,0.9c1.3,0,2.3-0.4,3.1-1.2c0.8-0.8,1.1-1.8,1.1-3.1V93z M273.7,102.4c0.1-1,0.1-2.2,0.2-3.8
			c0-1.6,0.1-3.9,0.1-6.9c0-2,0-3.5-0.1-4.4c0-1-0.1-1.8-0.2-2.7c0.3,0,0.5,0.1,0.8,0.1c0.3,0,0.6,0,1,0c0.3,0,0.6,0,0.9,0
			c0.3,0,0.6-0.1,0.8-0.1c0,0.9,0,1.5,0,1.9c0,0.4,0,0.8,0,1.2c0.7-1.2,1.6-2.1,2.7-2.7c1.1-0.6,2.3-0.9,3.6-0.9
			c1.3,0,2.4,0.3,3.2,0.9c0.8,0.6,1.4,1.4,1.7,2.6c0.8-1.2,1.8-2,2.8-2.6c1-0.6,2.2-0.8,3.5-0.8c0.9,0,1.8,0.2,2.5,0.5
			c0.8,0.3,1.4,0.8,1.9,1.4c0.4,0.5,0.7,1.1,0.9,1.7c0.2,0.6,0.3,1.6,0.3,3v5.5c0,1.5,0,2.7,0,3.6c0,0.9,0.1,1.8,0.1,2.6
			c-0.4-0.1-0.7-0.1-1-0.1c-0.3,0-0.6,0-0.8,0c-0.3,0-0.6,0-0.8,0c-0.3,0-0.6,0.1-0.9,0.1c0.1-2,0.2-3.6,0.2-5
			c0-1.3,0.1-2.6,0.1-3.6c0-1.8,0-3-0.1-3.6c0-0.6-0.1-1-0.3-1.3c-0.3-0.8-0.8-1.4-1.3-1.8c-0.6-0.4-1.3-0.6-2.2-0.6
			c-1.6,0-2.7,0.6-3.5,1.8c-0.7,1.2-1.1,3.1-1.1,5.7c0,1.3,0,2.7,0,4.1c0,1.4,0.1,2.9,0.1,4.4c-0.3-0.1-0.6-0.1-0.9-0.1
			c-0.3,0-0.6,0-0.9,0c-0.3,0-0.5,0-0.8,0c-0.3,0-0.6,0.1-0.9,0.1c0.1-2.1,0.1-3.8,0.2-5c0-1.2,0.1-2.3,0.1-3.3v-1.8
			c0-1.3-0.1-2.3-0.2-2.9c-0.1-0.6-0.3-1.1-0.7-1.5c-0.3-0.5-0.8-0.8-1.3-1.1c-0.5-0.2-1.1-0.4-1.8-0.4c-1.6,0-2.7,0.6-3.4,1.8
			c-0.7,1.2-1.1,3.1-1.1,5.6c0,1.4,0,2.7,0,4.1c0,1.4,0.1,2.9,0.1,4.4c-0.3-0.1-0.6-0.1-0.9-0.1c-0.3,0-0.6,0-0.9,0
			c-0.3,0-0.5,0-0.8,0C274.3,102.3,274,102.4,273.7,102.4z M305.2,112.6c0.1-1.3,0.1-2.6,0.2-4.1c0-1.5,0.1-3.5,0.1-6.3
			c0-4.3,0-7.8-0.1-10.8c0-2.9-0.1-5.2-0.2-6.8c0.3,0,0.5,0.1,0.8,0.1c0.3,0,0.6,0,0.9,0c0.3,0,0.6,0,0.9,0c0.3,0,0.6-0.1,0.8-0.1
			c-0.1,0.5-0.1,1-0.2,1.6c0,0.5-0.1,1.1-0.1,1.7c0.7-1.3,1.5-2.2,2.5-2.8c1-0.6,2.2-0.9,3.6-0.9c2.3,0,4.2,0.8,5.5,2.5
			c1.4,1.7,2,4,2,6.9c0,2.8-0.7,5-2,6.7c-1.4,1.7-3.2,2.5-5.4,2.5c-1.4,0-2.6-0.3-3.6-0.8c-1-0.5-1.8-1.3-2.4-2.4v5.4
			c0,2.2,0,3.8,0.1,4.8c0,1,0.1,1.9,0.2,2.7c-0.3-0.1-0.6-0.1-0.9-0.1c-0.3,0-0.6,0-0.9,0c-0.3,0-0.6,0-0.9,0
			C305.9,112.4,305.5,112.5,305.2,112.6z M318.3,93.7c0-2.3-0.4-4.2-1.3-5.5c-0.9-1.3-2.1-1.9-3.6-1.9c-1.6,0-2.8,0.6-3.7,1.9
			c-0.9,1.3-1.3,3.1-1.3,5.4c0,2.4,0.4,4.2,1.3,5.5c0.9,1.3,2.1,2,3.7,2c1.5,0,2.7-0.7,3.6-2C317.8,97.8,318.3,96,318.3,93.7z
			 M326,78.4c0-0.6,0.2-1.1,0.6-1.5c0.4-0.4,0.9-0.6,1.5-0.6c0.7,0,1.2,0.2,1.6,0.6c0.4,0.4,0.6,0.9,0.6,1.6c0,0.6-0.2,1.1-0.5,1.4
			c-0.4,0.4-0.9,0.5-1.5,0.5c-0.7,0-1.2-0.2-1.6-0.5C326.3,79.5,326,79,326,78.4z M326.1,102.4c0.1-1.1,0.1-2.4,0.2-4.2
			c0-1.7,0.1-3.9,0.1-6.5c0-1.7,0-3.1-0.1-4.2c0-1.1-0.1-2-0.2-2.9c0.3,0,0.6,0.1,0.9,0.1c0.3,0,0.6,0,1,0c0.3,0,0.7,0,1,0
			c0.3,0,0.6-0.1,0.9-0.1c-0.1,0.8-0.1,1.6-0.2,2.5c0,0.9-0.1,2.3-0.1,4c0,2.5,0,4.6,0.1,6.5c0,1.8,0.1,3.4,0.2,4.7
			c-0.4-0.1-0.7-0.1-1-0.1c-0.3,0-0.6,0-0.9,0c-0.3,0-0.6,0-0.9,0C326.8,102.3,326.5,102.4,326.1,102.4z M335.3,102.4
			c0.1-1,0.1-2.2,0.2-3.8c0-1.6,0.1-3.9,0.1-6.9c0-2,0-3.5-0.1-4.4c0-1-0.1-1.8-0.2-2.7c0.3,0,0.5,0.1,0.8,0.1c0.3,0,0.6,0,1,0
			c0.3,0,0.6,0,0.9,0c0.3,0,0.6-0.1,0.8-0.1c0,0.9,0,1.5-0.1,1.9c0,0.4,0,0.8,0,1.2c0.7-1.2,1.6-2.1,2.7-2.7
			c1.1-0.6,2.3-0.9,3.6-0.9c0.9,0,1.8,0.2,2.5,0.5c0.8,0.3,1.4,0.8,1.9,1.4c0.4,0.5,0.7,1.1,0.9,1.7c0.2,0.6,0.3,1.6,0.3,3v5.5
			c0,1.1,0,2.1,0,3.2c0,1,0.1,2,0.1,3.1c-0.3-0.1-0.7-0.1-1-0.1c-0.3,0-0.6,0-0.9,0c-0.3,0-0.6,0-0.9,0c-0.3,0-0.6,0.1-1,0.1
			c0.1-2.1,0.2-3.8,0.2-5c0-1.3,0.1-2.3,0.1-3.3v-1.9c0-1.3-0.1-2.2-0.2-2.8c-0.1-0.6-0.4-1.1-0.7-1.5c-0.4-0.5-0.8-0.8-1.4-1.1
			c-0.5-0.2-1.1-0.4-1.8-0.4c-1.6,0-2.8,0.6-3.5,1.8c-0.7,1.2-1.1,3.1-1.1,5.6c0,1.8,0,3.3,0,4.7c0,1.4,0.1,2.6,0.1,3.8
			c-0.3-0.1-0.6-0.1-0.9-0.1c-0.3,0-0.6,0-0.9,0c-0.3,0-0.6,0-0.9,0C336,102.3,335.7,102.4,335.3,102.4z M365.3,100.1
			c-0.8,0.9-1.6,1.6-2.6,2.1c-1,0.5-2,0.7-3.1,0.7c-1.5,0-2.8-0.5-3.7-1.3c-0.9-0.9-1.4-2.1-1.4-3.5c0-1.6,0.4-2.8,1.2-3.5
			c0.8-0.8,2.4-1.4,4.8-2l3.4-0.7c0.5-0.1,0.9-0.3,1.1-0.6c0.2-0.3,0.3-0.7,0.3-1.3c0-1.3-0.4-2.3-1.1-3.1s-1.8-1.1-3.1-1.1
			c-1.1,0-2,0.3-2.7,0.8c-0.8,0.5-1.3,1.2-1.7,2.2l-0.8-0.3l0.2-2c0.8-0.7,1.7-1.3,2.7-1.6c1-0.4,2.1-0.6,3.3-0.6
			c2.3,0,3.9,0.5,4.9,1.4c1,0.9,1.5,2.4,1.5,4.5v8.8c0,0.9,0.1,1.5,0.3,1.7c0.2,0.3,0.6,0.4,1.3,0.4c0,0,0.1,0,0.1,0
			c0.3,0,0.6,0,0.9,0v0.8c-0.7,0.3-1.3,0.6-1.9,0.7c-0.6,0.2-1.1,0.2-1.5,0.2c-0.7,0-1.3-0.2-1.7-0.6
			C365.6,101.6,365.4,101,365.3,100.1z M365.3,93l-2.2,0.4c-1.7,0.3-3,0.8-3.8,1.4c-0.8,0.6-1.2,1.5-1.2,2.5c0,1,0.3,1.8,0.8,2.4
			c0.5,0.6,1.3,0.9,2.2,0.9c1.3,0,2.3-0.4,3.1-1.2c0.8-0.8,1.1-1.8,1.1-3.1V93z M406.7,101.4c-1.8,0.5-3.5,0.9-5.2,1.1
			c-1.7,0.2-3.4,0.4-5,0.4c-4.4,0-7.9-1.2-10.3-3.5c-2.5-2.3-3.7-5.6-3.7-9.8c0-4,1.3-7.2,3.9-9.6c2.6-2.4,6.1-3.6,10.5-3.6
			c1.8,0,3.6,0.2,5.2,0.6c1.6,0.4,3,0.9,4.3,1.6c-0.3,0.6-0.5,1.1-0.7,1.7c-0.2,0.6-0.3,1.2-0.3,1.8h-0.6c-1-1.4-2.1-2.5-3.5-3.2
			c-1.3-0.7-2.9-1-4.7-1c-3,0-5.4,1-7.2,3.1c-1.8,2.1-2.7,4.8-2.7,8.2c0,3.7,0.9,6.6,2.7,8.6c1.8,2.1,4.3,3.1,7.5,3.1
			c1,0,2-0.1,3-0.3c1-0.2,1.9-0.6,2.9-1c0-0.6,0.1-1.2,0.1-1.8c0-0.6,0-1.2,0-1.8c0-0.9,0-1.9-0.1-2.7c0-0.9-0.1-1.7-0.2-2.6
			c0.3,0.1,0.7,0.1,1,0.1c0.3,0,0.6,0.1,1,0.1c0.4,0,0.7,0,1.1-0.1c0.4,0,0.7-0.1,1.1-0.1c-0.1,1-0.1,2-0.1,2.8c0,0.9,0,1.7,0,2.5
			c0,0.8,0,1.6,0,2.5S406.7,100.5,406.7,101.4z M410.8,102.4c0.1-0.8,0.2-2,0.2-3.7c0-1.7,0.1-4.4,0.1-8.1c0-1.6,0-2.8-0.1-3.6
			c0-0.8-0.1-1.7-0.2-2.4c0.3,0,0.6,0.1,0.9,0.1c0.3,0,0.7,0,1,0c0.4,0,0.7,0,1,0c0.3,0,0.6-0.1,0.9-0.1c-0.1,0.6-0.2,1.2-0.2,1.8
			c0,0.5-0.1,1.1-0.1,1.5v0.5c0.7-1.4,1.6-2.5,2.5-3.1c0.9-0.7,2-1,3.3-1c0.2,0,0.4,0,0.5,0c0.1,0,0.2,0,0.3,0c0,0.4-0.1,0.8-0.1,1
			c0,0.3,0,0.5,0,0.7c0,0.4,0,0.9,0.1,1.7c0,0,0,0.1,0,0.1c-0.6-0.1-1.1-0.2-1.5-0.3c-0.4-0.1-0.7-0.1-1-0.1c-0.6,0-1.1,0.1-1.6,0.3
			c-0.5,0.2-0.9,0.5-1.3,0.9c-0.5,0.5-0.9,1.1-1.1,1.8c-0.2,0.6-0.3,1.6-0.3,2.8V94v3.1c0,0.8,0,1.6,0.1,2.5
			c0.1,0.9,0.1,1.8,0.2,2.8c-0.5-0.1-0.8-0.1-1.1-0.1c-0.3,0-0.6,0-0.9,0c-0.3,0-0.6,0-0.9,0C411.5,102.3,411.2,102.4,410.8,102.4z
			 M433.5,100.1c-0.8,0.9-1.6,1.6-2.6,2.1c-1,0.5-2,0.7-3.1,0.7c-1.5,0-2.8-0.5-3.7-1.3c-0.9-0.9-1.4-2.1-1.4-3.5
			c0-1.6,0.4-2.8,1.2-3.5c0.8-0.8,2.4-1.4,4.8-2l3.4-0.7c0.5-0.1,0.9-0.3,1.1-0.6c0.2-0.3,0.3-0.7,0.3-1.3c0-1.3-0.4-2.3-1.1-3.1
			c-0.7-0.7-1.8-1.1-3.1-1.1c-1.1,0-2,0.3-2.7,0.8c-0.8,0.5-1.3,1.2-1.7,2.2l-0.8-0.3l0.2-2c0.8-0.7,1.7-1.3,2.7-1.6
			c1-0.4,2.1-0.6,3.3-0.6c2.3,0,3.9,0.5,4.9,1.4c1,0.9,1.5,2.4,1.5,4.5v8.8c0,0.9,0.1,1.5,0.3,1.7c0.2,0.3,0.6,0.4,1.3,0.4
			c0,0,0.1,0,0.1,0c0.3,0,0.6,0,0.9,0v0.8c-0.7,0.3-1.3,0.6-1.9,0.7c-0.6,0.2-1.1,0.2-1.5,0.2c-0.7,0-1.3-0.2-1.7-0.6
			C433.9,101.6,433.6,101,433.5,100.1z M433.5,93l-2.2,0.4c-1.7,0.3-3,0.8-3.8,1.4c-0.8,0.6-1.2,1.5-1.2,2.5c0,1,0.3,1.8,0.8,2.4
			c0.5,0.6,1.3,0.9,2.2,0.9c1.3,0,2.3-0.4,3.1-1.2c0.8-0.8,1.1-1.8,1.1-3.1V93z M441.6,102.4c0.1-1,0.1-2.2,0.2-3.8
			c0-1.6,0.1-3.9,0.1-6.9c0-2,0-3.5-0.1-4.4c0-1-0.1-1.8-0.2-2.7c0.3,0,0.5,0.1,0.8,0.1c0.3,0,0.6,0,1,0c0.3,0,0.6,0,0.9,0
			c0.3,0,0.6-0.1,0.8-0.1c0,0.9,0,1.5-0.1,1.9c0,0.4,0,0.8,0,1.2c0.7-1.2,1.6-2.1,2.7-2.7c1.1-0.6,2.3-0.9,3.6-0.9
			c0.9,0,1.8,0.2,2.5,0.5c0.8,0.3,1.4,0.8,1.9,1.4c0.4,0.5,0.7,1.1,0.9,1.7c0.2,0.6,0.3,1.6,0.3,3v5.5c0,1.1,0,2.1,0,3.2
			c0,1,0.1,2,0.1,3.1c-0.3-0.1-0.7-0.1-1-0.1c-0.3,0-0.6,0-0.9,0c-0.3,0-0.6,0-0.9,0c-0.3,0-0.6,0.1-1,0.1c0.1-2.1,0.2-3.8,0.2-5
			c0-1.3,0.1-2.3,0.1-3.3v-1.9c0-1.3-0.1-2.2-0.2-2.8c-0.1-0.6-0.4-1.1-0.7-1.5c-0.4-0.5-0.8-0.8-1.4-1.1c-0.5-0.2-1.1-0.4-1.8-0.4
			c-1.6,0-2.8,0.6-3.5,1.8c-0.7,1.2-1.1,3.1-1.1,5.6c0,1.8,0,3.3,0,4.7c0,1.4,0.1,2.6,0.1,3.8c-0.3-0.1-0.6-0.1-0.9-0.1
			c-0.3,0-0.6,0-0.9,0c-0.3,0-0.6,0-0.9,0C442.3,102.3,442,102.4,441.6,102.4z M464.9,93.4c0,2.3,0.4,4.2,1.3,5.5
			c0.9,1.3,2.1,1.9,3.6,1.9c1.6,0,2.8-0.6,3.7-1.9c0.9-1.3,1.3-3.1,1.3-5.4c0-2.4-0.4-4.2-1.3-5.5c-0.9-1.3-2.1-2-3.7-2
			c-1.5,0-2.7,0.7-3.6,2C465.4,89.3,464.9,91.1,464.9,93.4z M478,74.6c-0.1,1.3-0.1,2.8-0.2,4.4c0,1.6,0,3.5,0,5.8
			c0,4.3,0,7.9,0.1,10.9c0,3,0.1,5.2,0.1,6.8c-0.3-0.1-0.6-0.1-0.9-0.1c-0.3,0-0.6,0-0.8,0c-0.3,0-0.6,0-0.8,0
			c-0.3,0-0.6,0.1-0.9,0.1c0.1-0.6,0.1-1.1,0.2-1.7c0-0.6,0.1-1.1,0.1-1.6c-0.7,1.3-1.6,2.2-2.5,2.8c-1,0.6-2.2,0.9-3.5,0.9
			c-2.4,0-4.3-0.8-5.6-2.5c-1.3-1.7-2-4-2-7.1c0-2.8,0.7-5,2-6.7c1.3-1.7,3.2-2.5,5.4-2.5c1.4,0,2.6,0.3,3.6,0.8
			c1,0.5,1.8,1.3,2.4,2.4v-5.4c0-2.2,0-3.7,0-4.7s-0.1-1.9-0.2-2.6c0.3,0,0.6,0.1,0.9,0.1c0.3,0,0.6,0,1,0c0.4,0,0.7,0,1,0
			C477.5,74.7,477.8,74.6,478,74.6z M485.2,91.8h1.8c1,0,2.8,0,5.4-0.1c0.8,0,1.3,0,1.8,0c0-0.2,0-0.4,0.1-0.6c0-0.2,0-0.3,0-0.5
			c0-1.5-0.4-2.8-1.2-3.7c-0.8-0.9-1.8-1.4-3.1-1.4c-1.4,0-2.5,0.5-3.3,1.6C485.8,88.3,485.4,89.8,485.2,91.8z M485.1,93.4l0,0.3
			c0,2.4,0.5,4.3,1.6,5.6c1.1,1.3,2.6,2,4.5,2c1.2,0,2.2-0.2,3.1-0.6c0.9-0.4,1.7-1,2.3-1.8l0.5,0.1c-0.1,0.2-0.1,0.5-0.2,0.8
			c0,0.3-0.1,0.8-0.2,1.3c-0.9,0.6-1.9,1-3,1.3c-1.1,0.3-2.3,0.4-3.5,0.4c-2.8,0-5-0.8-6.5-2.4c-1.6-1.6-2.4-3.8-2.4-6.7
			c0-2.9,0.8-5.2,2.3-7c1.6-1.8,3.7-2.6,6.3-2.6c2.5,0,4.4,0.7,5.8,2.2c1.4,1.4,2.1,3.4,2.1,6c0,0.3,0,0.5,0,0.7c0,0.2,0,0.3,0,0.4
			c-0.1,0-0.2,0-0.3,0c-3.5-0.1-6-0.1-7.6-0.1c-0.6,0-1.2,0-1.9,0C487.3,93.3,486.3,93.3,485.1,93.4z"/>
	</g>
	<path class="st1" d="M29.9,0h98.7l-0.1,82c-1.3,11.4-6.6,19.3-14.8,27c-10.4,9.2-22.7,16-34.6,23l-6.3-3.9
		c-18.8-11.5-42-23.7-43-48.7V0z"/>
	<path class="st2" d="M35.8,31.9h86.9l-0.1,49.7c-2.4,20.8-23.6,31.6-39.7,41.4l-3.7,2.2l-3.2-2C59.3,113,36.6,101.6,35.8,79.4V31.9
		z"/>
	<path class="st3" d="M32.2,118.2l-8.4,14.3L0,112.7l11.4-1.2L9.2,99.4C10.3,99.9,32.2,118.2,32.2,118.2z"/>
	<path class="st3" d="M126.2,118.2l8.4,14.3l23.8-19.8l-11.4-1.2l2.2-12.1C148.2,99.9,126.2,118.2,126.2,118.2z"/>
	<g>
		<path class="st1" d="M9.5,132.4l10.6-14.3c10.4,11.5,33,19.5,59.1,19.5c26.1,0,48.7-8,59.1-19.5l10.6,14.3
			c-11,14.3-38.1,24.4-69.7,24.4S20.6,146.7,9.5,132.4z"/>
		<path class="st1" d="M32.2,118.2l-8.4,14.3L0,112.7l11.4-1.2L9.2,99.4C10.3,99.9,32.2,118.2,32.2,118.2z"/>
		<path class="st1" d="M126.2,118.2l8.4,14.3l23.8-19.8l-11.4-1.2l2.2-12.1C148.2,99.9,126.2,118.2,126.2,118.2z"/>
	</g>
	<path class="st0" d="M42.6,9.6c0.4,0,0.8,0.1,1.1,0.1c0.3,0,0.6,0,0.8,0c0.2,0,0.5,0,0.8,0c0.3,0,0.7,0,1.2-0.1
		c-0.1,1-0.2,2.1-0.2,3.1c0,1.1-0.1,2.3-0.1,3.7c0,2.3,0.2,3.8,0.7,4.5c0.5,0.7,1.3,1.1,2.4,1.1c0.6,0,1.2-0.1,1.7-0.4
		c0.5-0.2,0.9-0.6,1.2-1.1c0.3-0.4,0.4-0.9,0.5-1.6c0.1-0.6,0.2-1.7,0.2-3c0-1.2,0-2.3-0.1-3.3c0-1-0.1-2-0.2-3
		c0.3,0,0.6,0.1,0.8,0.1c0.2,0,0.3,0,0.4,0c0.1,0,0.3,0,0.4,0c0.2,0,0.4,0,0.7-0.1c-0.1,0.9-0.1,1.7-0.1,2.4c0,0.7,0,1.4,0,2v3
		c0,1.4-0.1,2.4-0.3,3.2c-0.2,0.7-0.5,1.3-0.9,1.8c-0.5,0.6-1.2,1-2,1.3c-0.8,0.3-1.7,0.4-2.8,0.4c-1.2,0-2.2-0.2-3.1-0.5
		c-0.9-0.3-1.5-0.8-2-1.4c-0.3-0.5-0.6-1-0.7-1.8c-0.1-0.7-0.2-1.9-0.2-3.5v-1.8v-0.7c0-0.9,0-1.7,0-2.4C42.7,11,42.7,10.3,42.6,9.6
		z M64.9,23.5c0.1-0.7,0.2-1.5,0.2-2.3c0-0.8,0.1-1.9,0.1-3.2v-1.4v-0.9c0-1.5,0-2.7-0.1-3.6c0-0.9-0.1-1.7-0.2-2.5
		c1.4,0,2.3,0.1,2.8,0.1c0.5,0,0.9,0,1.2,0c0.5,0,1.1,0,1.7,0c0.7,0,1.5,0,2.6-0.1c0,0.2,0,0.4,0,0.5c0,0.2,0,0.3,0,0.4
		c0,0.1,0,0.2,0,0.4c0,0.1,0,0.3,0,0.5c-0.5,0-1.1-0.1-1.6-0.1c-0.5,0-1.1,0-1.6,0c-0.4,0-0.6,0-0.8,0c-0.2,0-0.3,0-0.5,0
		c0,0.4,0,0.8-0.1,1.3c0,0.4,0,1,0,1.7v1.1c0.6,0,1.2,0,2-0.1c0.7,0,1.6-0.1,2.5-0.1c0,0.1,0,0.2,0,0.3c0,0.3,0,0.5,0,0.6
		c0,0.1,0,0.3,0,0.5c0,0.2,0,0.3,0,0.4C72.2,17,71.4,17,70.7,17c-0.7,0-1.4,0-2.1-0.1v3.8c0,0.6,0,1.1,0,1.5s0.1,0.9,0.1,1.3
		c-0.4,0-0.8,0-1.1,0c-0.3,0-0.6,0-0.8,0c-0.2,0-0.5,0-0.8,0C65.6,23.5,65.3,23.5,64.9,23.5z M93.3,12.9c-0.3-0.7-0.7-1.3-1.3-1.6
		c-0.6-0.4-1.3-0.6-2.2-0.6c-1.4,0-2.5,0.5-3.3,1.4c-0.8,1-1.2,2.3-1.2,4c0,2,0.4,3.6,1.2,4.6c0.8,1,1.9,1.6,3.5,1.6
		c0.9,0,1.6-0.1,2.3-0.4c0.7-0.3,1.2-0.7,1.6-1.2l0.3,0.2c-0.1,0.4-0.2,0.7-0.3,1.1c-0.1,0.3-0.1,0.7-0.2,1c-0.6,0.3-1.3,0.6-2,0.7
		c-0.7,0.2-1.5,0.2-2.4,0.2c-2.4,0-4.3-0.6-5.6-1.9c-1.3-1.3-2-3.1-2-5.4c0-2.2,0.7-4,2.1-5.3c1.4-1.3,3.3-1.9,5.8-1.9
		c0.8,0,1.7,0.1,2.4,0.3c0.8,0.2,1.6,0.5,2.3,0.8c-0.1,0.4-0.3,0.9-0.4,1.3c-0.1,0.4-0.2,0.8-0.3,1.2H93.3z M115.7,22.8
		c-1.1,0.3-2.2,0.6-3.2,0.7c-1,0.2-2,0.2-2.9,0.2c-2.3,0-4.1-0.6-5.4-1.9c-1.3-1.3-2-3.1-2-5.3c0-2.2,0.7-4,2.2-5.3
		c1.5-1.3,3.4-2,5.9-2c1,0,1.9,0.1,2.7,0.3c0.8,0.2,1.6,0.5,2.4,1c-0.2,0.4-0.3,0.8-0.4,1.2c-0.1,0.4-0.2,0.8-0.3,1.3h-0.2
		c-0.5-0.8-1-1.4-1.7-1.8c-0.7-0.4-1.4-0.6-2.3-0.6c-1.4,0-2.5,0.5-3.3,1.6c-0.8,1.1-1.3,2.5-1.3,4.3c0,1.8,0.4,3.2,1.2,4.2
		c0.8,1,1.9,1.5,3.3,1.5c0.4,0,0.7,0,1-0.1c0.3,0,0.6-0.1,0.9-0.2v-0.6c0-0.7,0-1.5-0.1-2.2c0-0.7-0.1-1.5-0.2-2.2
		c0.3,0,0.7,0,1,0.1c0.3,0,0.6,0,0.9,0c0.3,0,0.6,0,0.9,0c0.3,0,0.6,0,1-0.1c-0.1,0.8-0.1,1.4-0.2,1.9c0,0.5,0,0.9,0,1.3
		c0,0.3,0,0.6,0,1C115.6,21.6,115.7,22.1,115.7,22.8z"/>
	<path class="st0" d="M131.9,138.2c-0.2-0.3-0.3-0.6-0.5-0.9c-0.2-0.3-0.5-0.7-0.8-1.2l-0.4-0.5l-0.2-0.3c-0.4-0.5-0.7-0.9-0.9-1.3
		c-0.2-0.3-0.5-0.6-0.7-0.8c0.5-0.3,0.9-0.6,1-0.7c0.2-0.1,0.3-0.2,0.4-0.3c0,0,0,0,0,0c0,0,0.1,0.1,0.1,0.2
		c0.1,0.1,0.2,0.3,0.2,0.4c0.1,0.2,0.2,0.4,0.4,0.5c0.1,0.2,0.2,0.4,0.4,0.5c1,1.3-0.5-0.7,1.2,1.7c0.2,0.2,0.3,0.4,0.4,0.5
		c0.1,0.1,0.2,0.3,0.3,0.4c0,0,0.5,0.5,0.4,0.5c-0.2,0.1-0.7,0.5-0.8,0.6C132.3,137.9,132.1,138.1,131.9,138.2z M127,135.6
		c-0.3-0.2-0.5-0.3-0.9-0.3c-0.3,0-0.6,0.1-1,0.3c-0.6,0.3-0.9,0.7-1,1.2c-0.1,0.5,0,1.1,0.4,1.8c0.4,0.8,0.9,1.3,1.4,1.5
		c0.5,0.2,1.1,0.2,1.7-0.1c0.3-0.2,0.6-0.4,0.8-0.6c0.2-0.2,0.3-0.5,0.4-0.8l0.2,0c0,0.2,0.1,0.3,0.1,0.5c0,0.1,0.1,0.3,0.1,0.4
		c-0.2,0.3-0.4,0.5-0.6,0.7c-0.3,0.2-0.5,0.4-0.9,0.6c-0.9,0.5-1.8,0.6-2.6,0.4c-0.8-0.2-1.4-0.8-1.9-1.6c-0.5-0.8-0.6-1.7-0.3-2.4
		c0.3-0.8,0.9-1.4,1.9-1.9c0.3-0.2,0.7-0.3,1-0.4c0.3-0.1,0.7-0.2,1.1-0.2c0,0.2,0.1,0.4,0.1,0.6c0,0.2,0.1,0.4,0.1,0.5L127,135.6z
		 M115.7,138.7c0.2-0.1,0.3-0.1,0.5-0.2c0.1,0,0.2-0.1,0.3-0.1c0.1,0,0.2-0.1,0.3-0.1c0.1-0.1,0.3-0.1,0.5-0.2
		c0.1,0.4,0.3,0.9,0.4,1.3c0.2,0.4,0.4,0.9,0.6,1.5c0.4,0.9,0.7,1.5,1,1.7c0.3,0.2,0.7,0.2,1.2,0c0.3-0.1,0.5-0.3,0.7-0.4
		c0.2-0.2,0.3-0.4,0.3-0.6c0-0.2,0-0.4,0-0.7c-0.1-0.3-0.2-0.7-0.4-1.2c-0.2-0.5-0.4-0.9-0.6-1.3c-0.2-0.4-0.4-0.8-0.6-1.2
		c0.1,0,0.3-0.1,0.3-0.1c0.1,0,0.1,0,0.2-0.1c0,0,0.1,0,0.2-0.1c0.1,0,0.2-0.1,0.3-0.1c0.1,0.4,0.2,0.7,0.4,1
		c0.1,0.3,0.2,0.6,0.3,0.8l0.5,1.2c0.2,0.6,0.4,1,0.4,1.3c0,0.3,0,0.6-0.1,0.9c-0.1,0.3-0.3,0.6-0.6,0.9c-0.3,0.3-0.6,0.5-1.1,0.7
		c-0.5,0.2-0.9,0.3-1.4,0.3c-0.4,0-0.8-0.1-1.1-0.2c-0.2-0.1-0.4-0.3-0.6-0.6c-0.2-0.3-0.4-0.7-0.7-1.3l-0.3-0.7l-0.1-0.3
		c-0.2-0.4-0.3-0.7-0.4-1C116,139.3,115.8,139,115.7,138.7z M113.4,145.9c-0.1-0.3-0.1-0.6-0.2-1c-0.1-0.3-0.2-0.8-0.4-1.3l-0.2-0.6
		l-0.1-0.4c-0.2-0.6-0.4-1.1-0.5-1.5c-0.1-0.4-0.3-0.7-0.4-1c0.1,0,0.2-0.1,0.4-0.1c0.2-0.1,0.4-0.1,0.4-0.1c0.1,0,0.4-0.1,0.7-0.2
		c0.1,0,0.1,0,0.1-0.1c0.1,0.3,0.1,0.6,0.2,0.9c0.1,0.3,0.2,0.6,0.3,0.9l0.1,0.2l0.6,2c0.1,0.3,0.2,0.6,0.2,0.7
		c0.1,0.1,0.1,0.3,0.1,0.4c0.3-0.1,0.6-0.2,1-0.3c0.3-0.1,0.6-0.2,0.9-0.4c0,0.1,0,0.2,0.1,0.2c0,0.1,0,0.1,0,0.2c0,0,0,0.1,0.1,0.2
		c0,0.1,0,0.1,0.1,0.2c-0.6,0.2-1.1,0.3-1.4,0.4c-0.3,0.1-0.6,0.2-0.8,0.2c-0.2,0.1-0.4,0.1-0.7,0.2
		C113.9,145.7,113.7,145.8,113.4,145.9z M102.9,148.3l0.2-0.4c0.3-0.7,0.5-1.1,0.6-1.4l0.6-1.4l-2.6-2.7c0.2,0,0.4-0.1,0.6-0.1
		c0.1,0,0.3,0,0.4-0.1c0.1,0,0.2-0.1,0.4-0.1c0.1,0,0.3-0.1,0.5-0.2c0.1,0.2,0.2,0.3,0.3,0.4c0.1,0.1,0.2,0.2,0.2,0.3l0.8,0.9
		c0.1-0.3,0.3-0.7,0.4-1c0.1-0.3,0.2-0.7,0.3-1.1c0.1,0,0.2,0,0.3,0c0.1,0,0.2,0,0.2,0c0.1,0,0.1,0,0.2-0.1c0.1,0,0.2-0.1,0.3-0.1
		c-0.2,0.3-0.3,0.7-0.5,1.2c-0.2,0.5-0.5,1.1-0.7,1.7l2.7,3c-0.2,0-0.4,0.1-0.6,0.1c-0.2,0-0.3,0.1-0.4,0.1c-0.1,0-0.3,0.1-0.8,0.2
		l-0.1,0c-0.1-0.2-0.2-0.3-0.3-0.4c-0.1-0.1-0.1-0.2-0.2-0.2l-1-1.2c-0.1,0.4-0.3,0.7-0.4,1.1c-0.1,0.4-0.2,0.8-0.3,1.2
		c-0.2,0-0.4,0-0.4,0.1c-0.1,0-0.1,0-0.2,0c-0.1,0-0.2,0-0.3,0.1C103.1,148.2,103,148.2,102.9,148.3z M95.3,143.5
		c0.2,0,0.4,0,0.5-0.1c0.1,0,0.3,0,0.4,0c0.1,0,0.2,0,0.3-0.1c0.1,0,0.3-0.1,0.5-0.1c0,0.4,0.1,0.9,0.1,1.4c0.1,0.5,0.1,1,0.2,1.6
		c0.2,1,0.4,1.6,0.6,1.9c0.3,0.3,0.6,0.4,1.1,0.3c0.3,0,0.5-0.1,0.7-0.3c0.2-0.1,0.4-0.3,0.4-0.5c0.1-0.2,0.1-0.4,0.1-0.7
		c0-0.3,0-0.7-0.1-1.3c-0.1-0.5-0.2-1-0.3-1.4c-0.1-0.4-0.2-0.9-0.3-1.3c0.1,0,0.3,0,0.3,0c0.1,0,0.1,0,0.2,0c0.1,0,0.1,0,0.2,0
		c0.1,0,0.2,0,0.3-0.1c0,0.4,0.1,0.7,0.1,1.1c0,0.3,0.1,0.6,0.1,0.9l0.2,1.3c0.1,0.6,0.1,1,0.1,1.4c0,0.3-0.1,0.6-0.3,0.8
		c-0.2,0.3-0.5,0.5-0.8,0.7c-0.3,0.2-0.7,0.3-1.2,0.4c-0.5,0.1-1,0.1-1.4,0c-0.4-0.1-0.7-0.2-1-0.5c-0.2-0.2-0.3-0.4-0.4-0.7
		c-0.1-0.3-0.2-0.8-0.3-1.5l-0.1-0.8l-0.1-0.3c-0.1-0.4-0.1-0.7-0.2-1C95.4,144.1,95.3,143.8,95.3,143.5z M91.4,150.1
		c0-0.3,0-0.7,0-1c0-0.4-0.1-0.8-0.1-1.4l-0.1-0.6l0-0.4c-0.1-0.6-0.1-1.2-0.2-1.6c-0.1-0.4-0.1-0.7-0.2-1.1c0.1,0,0.2,0,0.4,0
		c0.2,0,0.4,0,0.4,0c0.1,0,0.4-0.1,0.7-0.1c0.1,0,0.1,0,0.1,0c0,0.3,0,0.6,0,0.9c0,0.3,0,0.6,0.1,0.9l0,0.2l0.2,2.1
		c0,0.4,0.1,0.6,0.1,0.8c0,0.2,0,0.3,0.1,0.4c0.3,0,0.7-0.1,1-0.1c0.3-0.1,0.6-0.1,1-0.2c0,0.1,0,0.2,0,0.2c0,0.1,0,0.1,0,0.2
		c0,0,0,0.1,0,0.2c0,0.1,0,0.1,0,0.2c-0.7,0.1-1.2,0.1-1.5,0.1c-0.3,0-0.6,0.1-0.8,0.1c-0.2,0-0.5,0.1-0.7,0.1
		C91.8,150,91.6,150.1,91.4,150.1z M81.2,150.3c0-0.2,0.1-0.4,0.1-0.6c0-0.2,0.1-0.5,0.1-0.8l0.2,0c0.1,0.4,0.2,0.7,0.5,0.8
		c0.2,0.2,0.5,0.3,0.9,0.3c0.3,0,0.6-0.1,0.8-0.3c0.2-0.2,0.3-0.4,0.3-0.6c0-0.2-0.1-0.4-0.2-0.5c-0.1-0.1-0.5-0.3-1-0.5
		c-0.7-0.3-1.2-0.6-1.4-0.8c-0.2-0.3-0.3-0.6-0.4-1c0-0.6,0.2-1,0.6-1.4c0.4-0.3,1-0.5,1.7-0.6c0.3,0,0.6,0,0.9,0.1
		c0.3,0.1,0.5,0.1,0.8,0.3c-0.1,0.2-0.1,0.4-0.2,0.6c-0.1,0.2-0.1,0.4-0.1,0.6l-0.1,0c-0.1-0.3-0.3-0.6-0.5-0.7
		c-0.2-0.1-0.5-0.2-0.8-0.2c-0.3,0-0.6,0.1-0.7,0.2c-0.2,0.1-0.3,0.3-0.3,0.6c0,0.3,0.4,0.6,1.1,0.9c0.1,0.1,0.2,0.1,0.3,0.1
		c0.7,0.3,1.1,0.6,1.3,0.8c0.2,0.2,0.3,0.6,0.3,1c0,0.6-0.2,1.1-0.7,1.5s-1.1,0.6-1.9,0.6c-0.3,0-0.6,0-0.9-0.1
		C81.7,150.5,81.4,150.4,81.2,150.3z M76,150.6c0-0.3,0.1-0.7,0.1-1c0-0.4,0-0.8,0-1.4v-0.6v-0.4c0-0.7,0-1.2,0-1.6
		c0-0.4,0-0.8-0.1-1.1c0.6,0,1,0,1.3,0c0.2,0,0.4,0,0.5,0c0.2,0,0.5,0,0.8,0c0.3,0,0.7,0,1.1,0c0,0,0,0.1,0,0.1c0,0.1,0,0.2,0,0.3
		c0,0.1,0,0.1,0,0.3c0,0.1,0,0.1,0,0.1c-0.2,0-0.5,0-0.7,0c-0.2,0-0.5,0-0.7,0c-0.2,0-0.3,0-0.4,0c-0.1,0-0.2,0-0.2,0
		c0,0.2,0,0.4,0,0.7c0,0.2,0,0.4,0,0.6v0.5c0.2,0,0.5,0,0.9,0c0.3,0,0.7,0,1.1-0.1c0,0.1,0,0.2,0,0.2c0,0.1,0,0.1,0,0.2
		c0,0,0,0.1,0,0.2c0,0.1,0,0.1,0,0.2c-0.3,0-0.7,0-1,0c-0.3,0-0.7,0-1,0v1c0,0.3,0,0.5,0,0.7c0,0.2,0,0.4,0,0.5c0.3,0,0.7,0,1,0
		c0.3,0,0.7,0,1-0.1c0,0.1,0,0.1,0,0.2c0,0.1,0,0.1,0,0.2c0,0,0,0.1,0,0.2c0,0.1,0,0.2,0,0.3c-0.7,0-1.2,0-1.5,0c-0.3,0-0.6,0-0.8,0
		c-0.2,0-0.5,0-0.7,0C76.5,150.5,76.2,150.5,76,150.6z M68.5,150.3c0.1-0.4,0.1-0.9,0.2-1.4c0-0.5,0.1-1,0.1-1.7c0-0.4,0-0.9,0-1.4
		c0-0.5,0-1.1,0-1.7c0.2,0,0.3,0,0.4,0c0.1,0,0.2,0,0.2,0c0.1,0,0.1,0,0.2,0c0.1,0,0.2,0,0.4,0c0.5,0.7,1,1.4,1.6,2.1
		c0.5,0.7,1.1,1.3,1.7,2l0.1-1.7c0-0.5,0-0.9,0.1-1.2c0-0.3,0-0.7,0-1c0.1,0,0.2,0,0.3,0c0.1,0,0.1,0,0.2,0c0.1,0,0.1,0,0.2,0
		c0.1,0,0.2,0,0.3,0c-0.1,0.3-0.1,0.8-0.2,1.3c0,0.5-0.1,1.4-0.2,2.4l0,0.4c0,0.4,0,0.8,0,1.1c0,0.3,0,0.5,0,0.8c-0.1,0-0.3,0-0.3,0
		c-0.1,0-0.1,0-0.2,0c-0.1,0-0.1,0-0.2,0c-0.1,0-0.2,0-0.3,0c-0.5-0.7-1.1-1.4-1.6-2.1c-0.6-0.7-1.1-1.4-1.7-2.1l-0.1,2.4
		c0,0.2,0,0.4,0,0.7c0,0.3,0,0.6,0,0.9c-0.1,0-0.2,0-0.3,0c-0.1,0-0.1,0-0.2,0c0,0-0.1,0-0.2,0C68.7,150.3,68.6,150.3,68.5,150.3z
		 M59.4,149.4c0.2-0.7,0.4-1.2,0.5-1.7c0.1-0.5,0.3-0.9,0.4-1.3l0.8-3c0.2,0,0.3,0.1,0.4,0.1c0.1,0,0.2,0,0.2,0c0.1,0,0.2,0,0.3,0
		c0.1,0,0.2,0,0.4,0c0.2,0.8,0.4,1.6,0.6,2.2c0.2,0.7,0.4,1.3,0.6,1.9l1.4-2.3c0.2-0.3,0.3-0.6,0.5-0.8c0.1-0.2,0.2-0.5,0.3-0.7
		c0.2,0,0.3,0.1,0.4,0.1c0.1,0,0.2,0,0.2,0c0.1,0,0.2,0,0.3,0c0.1,0,0.2,0,0.4,0l-0.1,3c0,0.1,0,0.2,0,0.3c0,1.3,0,2.2,0,2.8
		c-0.2,0-0.4-0.1-0.5-0.1c-0.1,0-0.2,0-0.3,0c-0.1,0-0.2,0-0.3,0c-0.1,0-0.3,0-0.5,0c0-0.5,0.1-1.1,0.1-1.8c0-0.1,0-0.1,0-0.1l0-2.1
		c-0.4,0.6-0.8,1.3-1.2,1.9c-0.4,0.6-0.7,1.3-1.1,1.9c-0.1,0-0.1,0-0.1,0c0,0-0.1,0-0.2,0c0,0-0.1,0-0.2,0c-0.1,0-0.1,0-0.1,0
		c-0.2-0.7-0.4-1.4-0.6-2.1c-0.2-0.7-0.4-1.4-0.7-2l-0.6,2.4c0,0.2-0.1,0.4-0.1,0.7c0,0.3-0.1,0.5-0.1,0.8c-0.1,0-0.3-0.1-0.3-0.1
		c-0.1,0-0.1,0-0.2,0c0,0-0.1,0-0.2,0C59.6,149.4,59.5,149.4,59.4,149.4z M51.8,145.1c0.2-1,0.7-1.7,1.4-2.2
		c0.7-0.4,1.6-0.6,2.7-0.4c1.1,0.2,1.8,0.6,2.3,1.2c0.5,0.6,0.6,1.4,0.4,2.3c-0.2,1-0.7,1.8-1.4,2.2c-0.7,0.5-1.6,0.6-2.8,0.4
		c-1.1-0.2-1.9-0.6-2.3-1.2C51.7,146.8,51.6,146,51.8,145.1z M53.4,145.3c-0.2,0.8-0.1,1.4,0.1,1.9c0.2,0.5,0.6,0.8,1.2,0.9
		c0.6,0.1,1,0,1.5-0.4c0.4-0.4,0.7-1,0.9-1.7c0.2-0.8,0.1-1.4-0.1-1.9c-0.2-0.5-0.6-0.8-1.2-0.9c-0.6-0.1-1.1,0-1.5,0.4
		C53.9,143.9,53.6,144.5,53.4,145.3z M40.7,145c0.8-0.9,1.5-1.7,2.2-2.6c0.7-0.9,1.4-1.7,2.1-2.6c0,0,0,0,0,0
		c0.2,0.1,0.3,0.1,0.4,0.2c0.1,0,0.2,0,0.4,0.1c0,0,0.1,0,0.1,0c0,1.1,0.1,2.3,0.2,3.3c0.1,1.1,0.2,2.2,0.3,3.2
		c-0.2-0.1-0.3-0.1-0.5-0.2c-0.1,0-0.3-0.1-0.4-0.1c-0.1,0-0.3-0.1-0.4-0.1c-0.1,0-0.3-0.1-0.5-0.1c0-0.2,0-0.4,0-0.8
		c0-0.4,0-0.7,0-0.9c-0.1,0-0.2-0.1-0.4-0.1c-0.2-0.1-0.4-0.1-0.5-0.2c0,0-0.2,0-0.4-0.1c-0.2-0.1-0.4-0.1-0.6-0.1
		c-0.2,0.3-0.6,0.8-1,1.4l0,0c-0.1,0-0.2-0.1-0.3-0.1c-0.1,0-0.1,0-0.2-0.1c-0.1,0-0.1,0-0.2-0.1C40.9,145.1,40.8,145.1,40.7,145z
		 M43.2,143.2C43.2,143.2,43.2,143.2,43.2,143.2c0.4,0.1,0.6,0.2,0.7,0.2c0.1,0,0.4,0.1,0.7,0.2l0,0c0-0.3,0-0.6,0-1
		c0-0.3-0.1-0.7-0.1-1c-0.2,0.3-0.5,0.6-0.7,0.8C43.6,142.7,43.4,143,43.2,143.2z M38.3,140.6L38.3,140.6c0.5,0.2,0.9,0.2,1.2,0.1
		c0.3-0.1,0.5-0.3,0.7-0.7c0.1-0.3,0.2-0.6,0-0.8c-0.1-0.2-0.4-0.4-0.8-0.6c0,0,0,0-0.1,0c0,0-0.1,0-0.1-0.1
		c-0.1,0.1-0.1,0.3-0.2,0.4c-0.1,0.1-0.1,0.3-0.2,0.5L38.3,140.6z M35.6,143.1c0.2-0.4,0.4-0.7,0.5-1.1c0.2-0.4,0.4-0.8,0.6-1.4
		l0.1-0.3c0.3-0.6,0.5-1.2,0.6-1.6c0.2-0.4,0.3-0.9,0.4-1.3c0,0,0,0,0.1,0c0.3,0.1,0.4,0.2,0.6,0.2c0.2,0.1,0.4,0.2,0.8,0.3
		c0.4,0.1,0.7,0.2,0.9,0.3c0.7,0.3,1.1,0.5,1.3,0.9c0.2,0.4,0.2,0.8,0,1.3c-0.2,0.4-0.4,0.7-0.8,0.8c-0.3,0.2-0.7,0.2-1.1,0.1
		c0.1,0.6,0.2,1.2,0.3,1.8c0.1,0.6,0.2,1.2,0.4,1.7c-0.2-0.1-0.4-0.2-0.6-0.3c-0.1-0.1-0.2-0.1-0.3-0.1c-0.1,0-0.2-0.1-0.4-0.1
		c-0.1,0-0.3-0.1-0.5-0.2c0-0.3-0.1-0.8-0.1-1.3c-0.1-0.5-0.2-1.2-0.4-1.9l-0.4,1.1c-0.1,0.3-0.2,0.6-0.3,0.8
		c-0.1,0.3-0.2,0.5-0.3,0.8c-0.2-0.1-0.3-0.2-0.4-0.2c-0.1,0-0.2-0.1-0.3-0.1c-0.1,0-0.2-0.1-0.3-0.1
		C35.9,143.2,35.8,143.1,35.6,143.1z M33,138.7c0.4,0.2,0.8,0.3,1.1,0.2c0.3-0.1,0.5-0.3,0.7-0.7c0.2-0.3,0.2-0.6,0.1-0.8
		c-0.1-0.2-0.3-0.4-0.6-0.6c0,0-0.1,0-0.1,0c-0.1,0-0.1,0-0.2-0.1c0,0.1-0.1,0.1-0.1,0.2c0,0.1-0.1,0.1-0.1,0.2l-0.2,0.5L33,138.7z
		 M32.7,139.3l-0.5,1.1c0,0.1-0.1,0.2-0.2,0.5c-0.1,0.2-0.2,0.5-0.3,0.8c-0.2-0.1-0.3-0.2-0.4-0.2c-0.1-0.1-0.2-0.1-0.3-0.2
		c-0.1,0-0.2-0.1-0.3-0.1c-0.1-0.1-0.3-0.1-0.5-0.2c0.2-0.4,0.4-0.7,0.7-1.1c0.2-0.4,0.5-0.9,0.8-1.6c0.3-0.5,0.5-1,0.7-1.5
		c0.2-0.4,0.4-0.9,0.6-1.3c0.1,0.1,0.3,0.1,0.4,0.2c0.1,0.1,0.2,0.1,0.3,0.1c0.2,0.1,0.4,0.2,0.7,0.3c0.3,0.1,0.6,0.3,0.8,0.3
		c0.7,0.3,1.1,0.6,1.3,1c0.2,0.4,0.2,0.8-0.1,1.3c-0.3,0.6-0.7,0.9-1.2,1c-0.5,0.1-1.2,0-1.9-0.4c-0.1,0-0.1-0.1-0.2-0.1
		C32.8,139.3,32.7,139.3,32.7,139.3z M27.2,132.3c0.2,0.1,0.3,0.2,0.4,0.3c0.1,0.1,0.2,0.1,0.3,0.2c0.1,0,0.2,0.1,0.3,0.2
		c0.1,0.1,0.3,0.1,0.5,0.2c-0.3,0.3-0.6,0.7-0.8,1.1c-0.3,0.4-0.6,0.8-0.9,1.3c-0.6,0.8-0.8,1.4-0.8,1.8c0,0.4,0.2,0.7,0.7,1
		c0.2,0.2,0.5,0.2,0.7,0.3c0.2,0,0.5,0,0.7-0.1c0.2-0.1,0.4-0.2,0.6-0.5c0.2-0.2,0.5-0.6,0.8-1.1c0.3-0.4,0.5-0.8,0.8-1.2
		c0.2-0.4,0.5-0.8,0.7-1.1c0.1,0.1,0.2,0.2,0.3,0.2c0.1,0,0.1,0.1,0.2,0.1c0,0,0.1,0.1,0.2,0.1c0.1,0,0.2,0.1,0.3,0.1
		c-0.2,0.3-0.5,0.6-0.6,0.9c-0.2,0.3-0.4,0.5-0.5,0.7l-0.7,1.1c-0.3,0.5-0.6,0.9-0.9,1.1c-0.2,0.2-0.5,0.4-0.8,0.5
		c-0.3,0.1-0.7,0.1-1.1,0c-0.4-0.1-0.8-0.2-1.2-0.5c-0.4-0.3-0.8-0.6-1-0.9c-0.2-0.3-0.4-0.6-0.4-1c0-0.2,0-0.5,0.2-0.8
		c0.1-0.3,0.4-0.7,0.8-1.3l0.4-0.7l0.2-0.3c0.2-0.3,0.4-0.6,0.6-0.9C26.9,132.8,27,132.5,27.2,132.3z M19.1,133.9
		c0.2-0.1,0.3-0.3,0.5-0.4c0.2-0.1,0.4-0.3,0.7-0.5l0.1,0.1c-0.2,0.3-0.3,0.7-0.2,0.9c0,0.3,0.2,0.5,0.5,0.8
		c0.3,0.2,0.5,0.3,0.8,0.3c0.3,0,0.5-0.1,0.7-0.3c0.1-0.2,0.2-0.3,0.2-0.5c0-0.2-0.1-0.5-0.4-1c-0.3-0.7-0.5-1.2-0.5-1.5
		c0-0.3,0.1-0.7,0.4-1c0.4-0.4,0.9-0.7,1.4-0.7c0.5,0,1.1,0.2,1.6,0.7c0.2,0.2,0.4,0.4,0.6,0.6c0.2,0.2,0.3,0.4,0.4,0.7
		c-0.2,0.1-0.4,0.2-0.5,0.3c-0.2,0.1-0.3,0.2-0.5,0.3l-0.1-0.1c0.1-0.3,0.2-0.6,0.1-0.9c-0.1-0.2-0.2-0.5-0.4-0.7
		c-0.2-0.2-0.5-0.3-0.7-0.3c-0.2,0-0.4,0.1-0.6,0.3c-0.2,0.2-0.1,0.7,0.2,1.4c0.1,0.1,0.1,0.2,0.1,0.3c0.3,0.7,0.4,1.2,0.4,1.5
		c0,0.3-0.2,0.6-0.4,0.9c-0.4,0.5-0.9,0.7-1.5,0.7c-0.6,0-1.2-0.3-1.8-0.8c-0.2-0.2-0.4-0.4-0.6-0.6
		C19.4,134.3,19.2,134.1,19.1,133.9z M135.3,135.8c-0.1-0.2-0.2-0.3-0.4-0.5c-0.1-0.2-0.3-0.4-0.5-0.7l0.1-0.1
		c0.3,0.2,0.7,0.3,0.9,0.3c0.3,0,0.6-0.2,0.8-0.5c0.2-0.2,0.4-0.5,0.4-0.7c0-0.2-0.1-0.5-0.3-0.7c-0.1-0.1-0.3-0.2-0.5-0.2
		c-0.2,0-0.6,0.1-1.1,0.3c-0.7,0.3-1.3,0.4-1.6,0.4c-0.3,0-0.7-0.2-1-0.4c-0.4-0.4-0.6-0.9-0.6-1.4c0-0.5,0.3-1.1,0.8-1.6
		c0.2-0.2,0.4-0.4,0.7-0.6c0.2-0.1,0.5-0.3,0.7-0.3c0.1,0.2,0.2,0.4,0.3,0.5c0.1,0.2,0.2,0.3,0.3,0.5l-0.1,0.1
		c-0.3-0.1-0.6-0.2-0.9-0.1c-0.3,0-0.5,0.2-0.7,0.4c-0.2,0.2-0.3,0.4-0.4,0.7c0,0.2,0.1,0.4,0.2,0.6c0.2,0.2,0.7,0.2,1.4-0.1
		c0.1,0,0.2-0.1,0.3-0.1c0.7-0.3,1.2-0.4,1.6-0.4c0.3,0,0.6,0.2,0.9,0.5c0.5,0.4,0.7,0.9,0.6,1.5c-0.1,0.6-0.4,1.1-0.9,1.7
		c-0.2,0.2-0.4,0.4-0.7,0.6C135.8,135.6,135.5,135.7,135.3,135.8z"/>
	<path class="st4" d="M111.7,94.4c-0.6,0.1-1-0.4-1.4-0.7c-7-5.3-14-10.7-21-15.9c-7.5-5.5-14.7-5.5-22.2,0
		c-6.5,4.7-12.9,9.6-19.4,14.3c-0.6,0.5-1.2,1.1-2,1.3c-0.1-0.9,0.6-1.1,1.1-1.5C51.9,87.2,57,82.7,62,78.1c0.4-0.4,1-0.7,1.3-1.6
		c-2.8,0-5.6,1.2-8.4,0.2c4.1-0.4,7.1-3.6,11.1-4.4c-1-1.2-2.4-1.3-3.7-1.6c-2-0.4-4-0.7-5.9-1.5c-0.6-0.2-1.2-0.3-1.6-0.9l0,0
		c4,0.5,7.8-0.8,11.9-0.5c-0.4-1.3-1.6-1.9-2.6-2.5c-1.7-1.1-3.4-2-5-3.2c-0.5-0.4-1.1-0.8-1.4-1.5c0-0.1,0.1-0.1,0.1-0.2
		c3.4,2,7.6,1.7,11.2,3.7c-0.2-1.7-1.2-2.8-2.1-3.9c-1.5-2-3.3-3.8-4-6.2l0,0c0.5-0.1,0.7,0.3,0.9,0.6c1.5,1.6,3.2,2.8,5.1,3.9
		c1.3,0.7,2.3,1.6,3.4,2.7c0.4-4.1-2.6-7.5-2-11.6c1.1,4.1,4.8,6.4,6.4,10.5c1.6-4,0.1-8.1,1.9-11.8c-0.1,4,2.3,7.5,2.6,11.8
		c2.8-3.4,2.9-7.9,5.9-10.7c-1.8,3.9-0.6,8.1-1.9,12.4c3.8-2.2,5.4-6.4,9.3-8.1c-3,3-3.2,7.3-6,10.8c4.2-0.6,6.9-3.8,10.9-4.1
		c-3.6,1.8-5.1,5.8-8.9,7.9c4.3,0.9,8.2-1.3,12.1-0.2c-4.1,0.5-7,3.7-11.4,4.5c3.7,2.2,8,1.5,11.4,3.9c-3-0.3-6,0-9.1,0.7
		c1,1.4,2.3,2.4,3.5,3.4c4.6,4.2,9.2,8.4,13.8,12.6C111.2,93.5,111.8,93.8,111.7,94.4z"/>
	<path class="st5" d="M78.3,126.6c-13-7.9-30.2-15.8-37.3-29.7c6.1-4.4,14.2-11.3,21.8-17.4c5.3-4.2,10.7-7.2,16.1-7.2
		c6.9,0.1,10.5,3.7,17.9,9.8l19.8,16.4C116.8,107.5,88,123.7,78.3,126.6z"/>
	<g>
		<path class="st0" d="M41.2,96.7l18.3-16.4C65,75.3,70.4,70,78,69.7c0,0,0.1,0,0.1,0v3.9c-0.1,0-0.2,0-0.3,0
			c-6.6,0.1-9.4,3-16.5,8.3L41.2,96.7z"/>
		<path class="st0" d="M116.4,98.3l-19.8-18c-5.5-5-10.9-10.3-18.4-10.6c0,0-0.1,0-0.1,0v3.9c0.1,0,0.2,0,0.3,0
			c6.6,0.1,9.4,3,16.5,8.3L116.4,98.3z"/>
	</g>
	<path class="st6" d="M35.8,31.9h86.9l-0.1,49.7c-2.4,20.8-23.6,31.6-39.7,41.4l-3.7,2.2l-3.2-2C59.3,113,36.6,101.6,35.8,79.4V31.9
		z"/>
</g>
</svg>
